<?xml version="1.0" encoding="UTF-8"?>
<svg id="Layer_1" data-name="Layer 1" xmlns="http://www.w3.org/2000/svg" viewBox="0 0 914.3 575.4">
  <defs>
    <style>
      .cls-1 {
        fill: none;
      }

      .cls-1, .cls-2, .cls-3, .cls-4 {
        stroke: #fff;
      }

      .cls-1, .cls-4 {
        stroke-linejoin: round;
      }

      .cls-5 {
        fill: #3aa806;
      }

      .cls-5, .cls-6, .cls-7, .cls-8, .cls-9, .cls-10, .cls-11, .cls-12, .cls-13, .cls-14, .cls-15, .cls-16, .cls-17, .cls-18, .cls-19, .cls-20, .cls-21, .cls-22 {
        isolation: isolate;
      }

      .cls-5, .cls-6, .cls-7, .cls-8, .cls-9, .cls-10, .cls-12, .cls-13, .cls-14, .cls-15, .cls-16, .cls-17, .cls-19, .cls-20, .cls-21, .cls-22 {
        opacity: .3;
      }

      .cls-6 {
        fill: #a7a807;
      }

      .cls-7 {
        fill: #01a985;
      }

      .cls-8 {
        fill: #96e600;
      }

      .cls-9 {
        fill: #0da885;
      }

      .cls-10 {
        fill: #a5c7b2;
      }

      .cls-12 {
        fill: #3da70b;
      }

      .cls-13 {
        fill: #277301;
      }

      .cls-14 {
        fill: #fbc4bb;
      }

      .cls-15 {
        fill: #cfa96a;
      }

      .cls-16 {
        fill: #d6c29e;
      }

      .cls-17 {
        fill: #70a700;
      }

      .cls-18 {
        font-family: Helvetica, Helvetica;
        font-size: 9px;
      }

      .cls-18, .cls-2, .cls-3 {
        fill: #2d5a3d;
      }

      .cls-2, .cls-3 {
        stroke-width: 1px;
      }

      .cls-23 {
        letter-spacing: -.02em;
      }

      .cls-19 {
        fill: #50e50b;
      }

      .cls-24 {
        letter-spacing: -.05em;
      }

      .cls-4 {
        fill: #e8e4df;
      }

      .cls-20 {
        fill: #70a605;
      }

      .cls-21 {
        fill: #5c8944;
      }

      .cls-22 {
        fill: #4fe600;
      }
    </style>
  </defs>
  <g id="Layer_1-2" data-name="Layer 1">
    <g id="states">
      <path class="cls-4" d="M629.5,462.7l.4-7.3-.9-1.2-1.7-.7-2.5-2.8.5-2.9,48.8-5.1-.7-2.2-1.5-1.5-.5-1.4.6-6.3-2.4-5.7.5-2.6.3-3.7,2.2-3.8-.2-1.1-1.7-1v-3.2l-1.8-1.9-2.9-6.1-12.9-45.8-45.7,4,1.3,2-1.3,67,4.4,33.2.9-.5h1.3c0,.1.6.5.6.5h.8c0-.1,2-3.9,2-3.9v-2.3l1.1-1.1,1.4.5,3.4,6.4v.9l-3.3,2.2,3.5-.4,4.9-1.6,1.1-.6h0Z"/>
      <path class="cls-4" d="M126.1,382.9l3-2.2.8-2.4-1-1.6-1.8-.2-1.1-1.6,1.1-6.9,1.6-.3,2.4-3.2,1.6-7,2.4-3.6,4.8-1.7,1.3-1.3-.4-1.9-2.3-2.5-1.2-5.8-1.4-1.8-1.3-3.4.9-2.1,1.4-3,.5-2.9-.5-4.9,1-13.6,3.5-.6,3.7,1.4,1.2,2.7h2l2.4-2.9,3.4-17.5,46.2,8.2,40,6-17.4,124.1-37.3-5.4-64.2-37.5.5-2.9,2-1.8h2.2v.1Z"/>
      <path class="cls-4" d="M570.7,362.3l.9-2.2,1.2.5.7-1-.8-.7.3-1.5-1.1-.9.6-1v-1.5l-1.2-.1.8-.8,1.3.8.3-1.4-.4-1.1v-.7l2.1.6-.4-1.5,1.6-1.3-.5-.9h-1.1c0,.1-.6-.8-.6-.8l.9-.9,1.6-.2.5-.8,1.4-.2v-.8l-1-.9v-.5h1.5l.4-.7-1.4-1v-.6l-11.3.8,2.8-5.1,1.7-1.5v-2.2l-1.6-2.5-39.8,2-39.1.7,4.1,24.4-.7,39,2.6,2.3,2.8-1.3,3.2.8.2,11.9,52.3-1.3,1.2-1.5.5-3-1.5-2.3-.5-2.2.9-.7v-.8l-1.7-1.1v-.7l1.5-.9-1.2-1.1,1.7-7.1,3.4-1.6v-.8l-1.1-1.4,2.9-5.4h1.9l1.5-1.2-.3-5.2,3.1-4.5,1.8-.6-.5-3.1,1.6-.7h0Z"/>
      <path class="cls-4" d="M55.9,360.9l3.4,5.2h-1.4c0,.1-1.8-1.8-1.8-1.8l-.2-3.4h0ZM57.8,351.1l1.8,4.1,2.6,1,.7-.6-1.3-2.5-2.6-2.4-1.2.4ZM37.9,332.1v2.4l2,1.2,4.4-.2,1-1-3.1-.2-4.3-2.2h0ZM32,332.2l3.3.5,1.4,2.2h-3.8l-.9-2.7ZM79.9,377.7l-1-3,.2-3-.4-7.9-1.8-4.8-1.2-1.4-.6-1.5-7-8.6h-3.6c0,.1-2-1.8-2-1.8l1.1-1.8-.7-3.7-2.2-1.2-3.9-.6-2.8-1.3-1.5-1.9-4.5-6.6-2.7-2.2-3.7-.5-3.1-2.3-4.7-1.5-2.8-.3-2.5-2.5.2-2.8.8-4.8,1.8-5.1-1.4-1.6-4-9.4-2.7-3.7-.4-3-1.6-2.3.2-2.5-2-5-2.9-2.7.6-7.1,2.4-.8,1.8-3.1-.4-3.2-1-.9h-2.5l-2.5-3.3-1.5-3.5v-7.5l1.2-4.2.2-2.1,2.5.2v1.6c-.1,0-.9.7-.9.7v2.5l3.7,3.2v-4.7l-1.4-3.4.5-1.1-1-1.7,2.8-1.5-1.9-3-1.4.5-1.5,3.8.5,1.3-.8,1h-.9c0-.1-5.4-6.2-5.4-6.2l.7-5.6-1.1-3.9-6.5-12.8.8-10.7,2.3-3.6.2-6.4-5.5-11.1.3-5.2,6.9-7.5,1.7-2.4v-1.4c-.1,0,3.9-9.2,3.9-9.2v-8.4c.1,0,1-2.5,1-2.5l66.1,18.6-16.4,63.1,1.1,3.5,70.4,105-.9,2.1,1.3,3.4,1.4,1.8,1.2,5.8,2.3,2.5.4,1.9-1.3,1.3-4.8,1.7-2.4,3.6-1.6,7-2.4,3.2-1.6.3-1.1,6.9,1.1,1.6,1.8.2,1,1.6-.8,2.4-3,2.2h-2.2c0-.1-44-5.2-44-5.2h0Z"/>
      <path class="cls-4" d="M361.1,318.6l-16.5-1-51.7-4.8-52.6-6.5,11.5-88.3,44.9,5.7,37.5,3.4,33.1,2.4-1.4,22.1-4.8,67Z"/>
      <path class="cls-4" d="M860,174.2l.4-1.1-3.2-12.3v-.3l-15,3.4v.7l-.9.3-.5-.7-10.5,2.4,2.8,16.3,1.8,1.5-3.5,3.4,1.7,2.2,5.4-4.5,1.7-1.3h.8l2.4-3.1h1.4c0,.1,2.9-1,2.9-1h2.1l5.3-2.7,2.8-.9,1-1,1.5.5-.4-1.8h0Z"/>
      <path class="cls-4" d="M808.7,221.9l-1.6.3-1.5,1.1-1.2,2.1,7.6,27.1,10.9-2.3-2.2-7.6-1.1.5-3.3-2.6-.5-1.7-1.8-1-.2-3.7-2.1-2.2-1.1-.8-1.2-1.1-.4-3.2.3-2.1,1-2.2-1.6-.6h0Z"/>
      <path class="cls-4" d="M738.2,440.4l-4-.7-1.7-.9-2.2,1.4v2.5l1.4,2.1-.5,4.3-2.1.6-1-1.1-.6-3.2-50.1,3.3-3.3-6-48.8,5.1-.5,2.9,2.5,2.8,1.7.7.9,1.2-.4,7.3-1.1.6.5.4,1-.3.7-.8,10.5-2.7,9.2-.5,8.1,1.9,8.5,5,2.4.8,2.2,2v2.7h2.3l1.9-1h2.5c0,.1,2-.7,2-.7l2.9-2,3.1-2.9,1.1-.4.6.5h1.4l.5-.8-.5-1.2-.6-.6.2-.8,2-1.1,5-.4.8,1h1c0,.1,2.3,1.1,2.3,1.1l3,1.8,1.2,1.7,1.1,1.2,2.8,1.4v2.4l2.8,1.9h1c0,.1,1.6,1.5,1.6,1.5l.7,1.6,1,.2.8,2.1.7.6,1-1.1h2.9c0,.1.5,1.5.5,1.5l1.1.9v1.3l2.9,2.2.2,9.6-1.8,5.8,1,1.2-.2,3.4-.8,1.4.7,1.2,2.3,2.3.3,1.5.8,1-.4-1.9,1.3-.6.8-3.6-3-1.2v-.6l2.7-.4.9,2.6,1.1.6v-2l1.2.3.6.8v.7l-3,4.2-.2,1.1-1.7,1.9v1.1l3.7,3.8,5.3,7.9,1.8,2.1v1.8l2.8,4.6,2.3.6.7-1.2-2.1.3-3-4.5.2-1.4,1.5-.8v-1.5l-.6-1.3.9-.9.4.9.7.5v4l-1.2-.6-.8.9,1.4,1.6,1,2.6,1.2-.6,2.3,1.2,2.1,2.2,1.6,5.1,3.1,4.8.8-1.3,2.8-.5,3.2,1.3.3,1.7,3.3,3.8v1.1l2.3,2.7-.7.5v2.7l2.7,1.4h1.5l2.7-1.8,1.5.3,1.1.4,2.3-1.7.2-.7,1.2.3,2.4-1.7,1.3-2.3-.7-3.2-.2-1.3,1.1-4,.6-.2.6,1.6.8-1.8-.8-7.2-.4-10.5-1-6.8-.7-1.7-6.6-11.1-5.2-9.1-2.2-3.3-1.3-3.6-.2-3.4.9-.3v-.9l-1.1-2.2-4-4-7.6-9.7-5.7-10.4-4.3-10.7-.6-3.7-1.2-1-.5-3.8-3.6.3h0ZM747.4,574.9h1.7l-.7-1.1-1,1.1ZM754.7,573.8v-.7l1.6-.2,3.7-3.3,1.5-.6,2.4-.9.3,1.3,1.7.8-2.6,1.2h-2.4l-3.9,2.5h-2.3v-.1ZM771.9,566.2l-3,1.4-1,1.3h1.1l2.9-2.7ZM775.7,563.3l-1.1.3-1.4,2,1.1-.2,1.5-1.6v-.5h-.1ZM784,547.6l-1.7,5.6-.8,1-1,2.6-1.2,1.6-.7,1.7-1.9,2.2v.9l2.7-2.8,2.4-3.5.6-2,2.1-4.9-.5-2.4h0Z"/>
      <path class="cls-4" d="M748.3,409.4v1.4l-4.2,6.2-1.2.2,1.5.5v2l-.9,1.1-.6,6-2.3,6.2.5,2,.7,5.1-3.6.3-4-.7-1.7-.9-2.2,1.4v2.5l1.4,2.1-.5,4.3-2.1.6-1-1.1-.6-3.2-50.1,3.3-3.3-6-.7-2.2-1.5-1.5-.5-1.4.6-6.3-2.4-5.7.5-2.6.3-3.7,2.2-3.8-.2-1.1-1.7-1v-3.2l-1.8-1.9-2.9-6.1-12.9-45.8,22.9-2.9,21.4-3v1.9l-2,1-1.4,3.2.2,1.3,6.1,3.8,2.6-.3,3.1,4,.4,1.7,4.2,5.1,2.6,1.7,1.4.2,2.2,1.6,1.1,2.2,2,1.6,1.8.5,2.7,2.7v1.4l2.7,2.8,5,2.3,3.6,6.7.3,2.7,3.9,2.1,2.5,4.8.8,3.1,4.2.4.9.4h0Z"/>
      <path class="cls-4" d="M151.8,178.4l-24.4-5.4,8.5-37.3,2.9-5.8.4-2.1.8-.9-.9-2-2.9-1.2.2-4.2,4-5.8,2.5-.8,1.6-2.3v-1.6c-.1,0,1.7-1.6,1.7-1.6l3.2-5.5,4.2-4.8-.5-3.2-3.5-3.1-1.6-3.6,1.1-4.3-.7-4,12.7-56.1,14.2,3-4.8,22,3.7,7.4-1.6,4.8,3.6,4.8,1.9.7,3.9,8.3v2.1l2.3,3h.9l1.4,2.1h3.2v1.6l-7.1,17-.5,4.1,1.4.5,1.6,2.6,2.8-1.4,3.6-2.4,1.9,1.9.5,2.5-.5,3.2,2.5,9.7,2.6,3.5,2.3,1.4.4,3v4.1l2.3,2.3,1.6-2.3,6.9,1.6,2.1-1.2,9,1.7,2.8-3.3,1.8-.6,1.2,1.8,1.6,4.1h.9c0,.1-8.5,54.9-8.5,54.9l-47.9-8.2-23.3-4.7h0Z"/>
      <path class="cls-4" d="M610,261.2l-1,5.2v2l2.4,3.5v.7l-.3.9.9,1.9-.3,2.4-1.6,1.8-1.3,4.2-3.8,5.3v7h-1.1l.9,1.9v.9l-2.2,2.7v1.1l1.6,2.2v.9l-3.8.6-.6,1.2-1.2-.6-1,.5-.4,3.3,1.7,1.8-.4,2.4-1.5.3-6.9-3-4,3.7.3,1.8h-2.8l-1.4-1.5-1.8-3.8v-1.9l.8-.6v-1.3l-1.6-1.9-.9-2.5-2.7-4.1-4.8-1.3-7.4-7.1-.4-2.4,2.8-7.6-.4-1.9,1.2-1.1v-1.3l-2.8-1.5-3-.7-3.4,1.2-1.3-2.3.6-1.9-.7-2.4-8.6-8.4-2.2-1.5-2.5-5.9-1.2-5.4,1.4-3.7.7-.7v-2.3l-.6-.9,1-1.5,1.8-.6.9-.3,1-1.2v-2.4l1.7-2.4.5-.5v-3.5l-.8-1.4-1-.3-1.1-1.6,1-4,3-.8h2.4l4.2-1.8,1.7-2.2v-2.4l1.2-1.3,1.3-3.2v-2.6l-2.9-3.5h-1.2l-.9-1.1.2-1.6-1.7-1.7-2.5-1.3.5-.6,45.9-2.8v4.6l3.5,4.6,1.2,4.1,1.6,3.2,4.1,50.2h0Z"/>
      <path class="cls-4" d="M615.7,210.1l-5.1,2.3-4.7-1.4,4.1,50.2-1,5.2v2l2.4,3.5v.7l-.3.9.9,1.9-.3,2.4-1.6,1.8-1.3,4.2-3.8,5.3v7h-1.1l.9,1.9,1.1.8.6-1-.7-1.7,4.6-.5.2,1.2,1.1.2.4-.9-.6-1.3.3-.8,1.3.8,1.7-.4,1.7.6,3.4,2.1,1.8-2.8,3.5-2.2,3,3.3,1.6-2.1.3-2.7,3.8-2.3.2,1.3,1.9,1.2,3-.2,1.2-.7v-3.4l2.6-3.7,4.6-4.4v-1.7l1.1-3.8,2.2,1,6.7-4.5-.4-1.7-1.5-2.1,1-1.9-6.6-57.2v-1.4l-32.5,3.4-1.7,1.6h0Z"/>
      <path class="cls-4" d="M543.4,178.3l2.1,1.6.6,1.1-1.6,3.3v2.5l1.9,5.5,2.7,1.5,3.3.7,1.3,2.8-.5.6,2.5,1.3,1.7,1.7-.2,1.6.9,1.1h1.2l2.8,3.5v2.6l-1.2,3.2-1.1,1.3v2.4l-1.8,2.2-4.2,1.8h-2.4l-3,.8-1,4,1.1,1.6,1,.3.9,1.4v3.5l-.6.5-1.7,2.4v2.4l-1,1.2-.9.3-1.8.6-1,1.5.7.9v2.3l-.8.7-1.5-.8-1.1-1.1-.6-1.6-1.7-1.3-14.3.8-27.2,1.2h-25.9c0-.1-1.8-4.5-1.8-4.5l.7-2.2-.8-3.3.2-2.9-1.3-.7-.4-6.1-2.8-5-.2-3.7-2.2-4.3-1.3-3.7v-1.4l-.6-1.7v-2.3l-.5-.9-.7-1.7-.3-1.3-1.3-1.2,1-4.3,1.7-5.1-.7-2-1.3-.4-.4-1.6,1-.5v-1.1c.1,0-1.2-1.5-1.2-1.5v-1.6c.1,0,2.3.1,2.3.1h28.2l36.3-.9,18.6-.7.2,2.6h0Z"/>
      <path class="cls-4" d="M445.6,254.8l-43.7-1.2-36-2-4.8,67,67.7,2.9h62c0,.1-.5-48-.5-48l-3.2-.7-2.6-4.7-2.5-2.5.5-2.3,2.7-2.6v-1.2c.1,0-1.4-2.1-1.4-2.1l-.9,1-2-.6-2.9-3h-32.4Z"/>
      <path class="cls-4" d="M678.6,317.8l-20.5,1.4-5.2.8-17.4,1-2.6.8-22.6,2-.7-.6h-3.7l1.2,3.2-.6.9-23.3,1.5,1-2.7,1.4.9.7-.4,1.2-4.1-1-1,1-2,.2-.9-1.3-.8-.3-1.8,4-3.7,6.9,3,1.5-.3.4-2.4-1.7-1.8.4-3.3,1-.5,1.2.6.6-1.2,3.7-.6v-.9l-1.4-2.2v-1.1l2.1-2.7v-.9l1.1.8.6-1-.7-1.7,4.6-.5.2,1.2,1.1.2.4-.9-.6-1.3.3-.8,1.3.8,1.7-.4,1.7.6,3.4,2.1,1.8-2.8,3.5-2.2,3,3.3,1.6-2.1.3-2.7,3.8-2.3.2,1.3,1.9,1.2,3-.2,1.2-.7v-3.4l2.6-3.7,4.6-4.4v-1.7l1.1-3.8,2.2,1,6.7-4.5-.4-1.7-1.5-2.1,1-1.9,1.3.5h2.2c0,.1,1.9-.7,1.9-.7l2.9,1.2,2.2,3.4v1l4.1.7,2.3-.2,1.9,2.1,2.2.2v-1l1.9-.8,3,.8,1.2.8,1.3-.7h.9l.6-1.7,3.4-1.8.5.8.8,2.9,3.5,1.4,1.2,2.1v1.1l.5,1-.6,3.6,1.9,1.6.8,1.1,1,.6v.9l4.3,5.6h1.4l1.5,1.8,1.2.3h1.4c0-.1-4.9,6.5-4.9,6.5l-2.9,1-3,3-.4,2.2-2.1,1.3v1.7l-1.5,1.4-1.8.5-.5,1.9-1,.4-6.9,4.2-5.6,1.4h0ZM580.6,329.1l-.7-.7.2-1h1.1l.7.7-.3,1h-1Z"/>
      <path class="cls-4" d="M589,468.1l-1.2-1.8.3-1.3-4.8-6.8.9-4.6,1-1.4v-1.4l-35.9,2,1.7-11.9,2.4-4.8,6-8.4-1.8-2.5h2v-3.3l-2.4-2.5.5-1.7-1.2-1-1.6-7.1.6-1.4-52.3,1.3.5,19.9.7,3.4,2.6,2.8.7,5.4,3.8,4.6.8,4.3h1v7.3l-3.4,6.4,1.3,2.3-1.3,1.5.7,3v4.3l-2.3,3.5v.8l-1.8,1.2,1,1.8,1.2,1.1,1.6-1.3,5.3-.9h6.1c0-.1,9.6,3.7,9.6,3.7l8,1,1.5-1.4,1.8-.2,4.8,2.2,1.6-.4,1.1-1.5-4.2-1.8-2.2,1-1.1-.2-1.4-2,3.3-2.2h1.6c0-.1,0,1.6,0,1.6h1.5c0-.1,3.4-.4,3.4-.4l.4,2.3,1.1.4.6,1.9,4.8,1,1.7,1.6v.7h-1.2l-1.5,1.7,1.7,1.2,5.4,1,2.7,2.8,4.4-1-3.7.2v-.6l2.7-.7.2-1.8,1.2-.3v-1.4h1.1v1.7h2.5c0,.1.8-1.8.8-1.8l.9.3.2,2.5,1.2.2-1.8,2,2.6-.9,2-1.1,2.9-3.3h-.7l-1.3,1.2h-.4c0-.1-.5-.9-.5-.9l.9-1.2v-2.3l1.1-.8.7.7,1-.8h1c0-.1.6,1.2.6,1.2l-.6,1.9h2.4l5.1,1.7.5,1.3,1.6,1.4h2.8c0,.1,1.3.8,1.3.8l1.8-1,.9-1.7v-1.7h-1.4l-1.2-1.4-1.1-1.1-3.2-.9-2.6.2-4.2-2.4v-2.3l1.3-1,2.4.6-3.1-1.6.2-.8h3.6l2.6-3.5-2.6-1.8.8-1.5-1.2-.8h-.8l-2,2.1v2.1l-.6.7h-1.1c0-.1-1.6-1.5-1.6-1.5h-1.3v-1.5l.6-.7.8.7,1.7-1.6.7-1.6.8-.3-.6-.7h0ZM578.7,465.4l1.9,1,.8,1.1h2.5c0,.1,1.5.9,1.5.9l.2,1.4-.4.6-.9-1.5-1.4,1.2-.9,1.4-2.8.8h-1.6c0,.1-3.7-.9-3.7-.9v-1.7l2.1-2,1.1-2.4h1.6v.1ZM574,466.6v1.1l-1.8,2h-1.2v-2.2l1.6-1.5,1.4.6Z"/>
      <path class="cls-4" d="M861.5,124l.6,4,3.2,2,.8,2.2,2.3,1.4,1.4-.3,1-3-.8-2.9,1.6-.9.5-2.8-.6-1.3,3.3-1.9-2.2-2.3.9-2.4,1.4-2.2.5,3.2,1.6-2,1.3.9,1.2-.8v-1.7l3.2-1.3.3-2.9,2.5-.2,2.7-3.7v-.7l-.9-.5v-3.3l.5-1.1.2,1.6,1-.5-.2-3.2-.9.3v1.2l-1.3-1.4.9-1.4h.6l1.1-.3.5,2.8,2-.3,2.9.7v-1l-1.1-1.2h1.3v-2.2l.6.8.3,1.9,2.1,1.5.2-1,.9-.2-.3-.8.8-.6v-1.6l-1.7-.2-2,.7,1.4-1.6.7-.8,1.3-.2.4,1.3,1.7,1.6.4-2.1,2.3-1.2-.9-1.3v-1.7l1.2.5h.7l1.7-1.4.4-2.3,2.2.3v-.7l.3-1.6.5,1.4,1.5-1,2.3-4.1v-2.2l-1.5-2-3-3.2h-1.9l-.8,2.2-2.9-3,.3-.8v-1.5l-1.6-4.5-.8-.2-.7.4h-4.8l-.3-3.6-8.1-26-7.3-3.7h-2.9l-6.7,6.5-2.7-1-1-3.9h-2.7l-6.9,19.5.7,6.2-1.7,2.4-.4,4.6,1.3,3.7.8.2v1.6l-1.6,4.5-1.5,1.4-1.3,2.2-.4,7.8-2.4-1-1.5.4,11.9,36.8h.1ZM896.1,99.3l-1,.8v1.3l.7-.8.9.8.4-.5,1.1.2-1-.8.4-.8-1.5-.2h0ZM894.4,101.9l-1,1.1.5.4v1h1v-1.8l-.5-.7ZM891.4,100.3l.9,1.3,1,.5.3-1v-1.8l-1.3-.7-.4,1.2-.5.5ZM890.4,105.3l-1.7-1.7,1.6-2.4.8.3.2,1.1,1,.8v1.1l-1,1-.9-.2h0Z"/>
      <path class="cls-4" d="M809.4,264.6v-1.7h-.8v1.8h.8v-.1ZM821.2,260.7l1.2-2.2v-2.5l-.5-.6-.7.9-.2,2.1-.8,1.4-.3,1.1-4.6,1.6-.7.8-1.3.2-.4.9-1.3.6-.3-2.5.4-.7-.8-.5.2-1.5-1.6,1v-2l1.2-.3-1.9-.4-.7-.8.4-1.3-.8-.6-.7,1.6.5.8-.7.6-1.1.5-2-1-.2-1.2-1-1.1-1.4-1.7,1.5-.8-1-.6v-.9l.6-1,1.7-.3-1.4-.6v-.7l-1.4-.1-.4,1.1-.6.3v-3.4l1.1-1,.8.7v-1.6l-.9-.9-.9,1.1-1,1.4-.6-1,.2-2.4.9-1,.9.9,1.2-.7-.4-1.7-1,1-.9-2.1-.2-1.7,1.1-2.4,1.1-1.4,1.4-.2-.5-.8.5-.6-.3-.7.2-2.1-1.5.4-.8,1.1,1,1.3-2.6,3.6-.9-.4-.7.9-.6,2.2-1.8.5,1.3.6,1.3,1.3-.2.7.9,1.2-1.1,1,.5.3-.5,1.3v2.1l-.5,1.3.9,1.1.7,3.4,1.3,1.4,1.6,1.4.4,2.8,1.6,2,.4,1.4v1h-.7l-1.5-1.2-.4.2-1.2-.2-1.7-1.4-1.4-.3-1,.5-1.2-.3-.4.2-1.7-.8-1-1-1-1.3-.6-.2-.8.7-1.6,1.3-1.1-.8-.4-2.3.8-2.1-.3-.5.3-.4-.7-1h1c0-.1,1-1,1-1l.4-1.8,1.7-2.6-2.6-1.8-1,1.7-.6-.6h-1.6c0-.1-.4-.5-.4-.5v-.5l-1.6-.6-.8.3h-1.2c0-.1-.7-.8-.7-.8l-.5-.2-.2-.7.6-.8v-.9l-1.2-.2-1-.9h-.9c0,.1-1.6-.2-1.6-.2l-.9-.4.2-1.6-1-.5-.2-.7h-.7l-.8-1.2.2-1-2.6.4-2.2-1.6-1.4.3-.9,1.4h-1.3l-1.7,2.9-3.3.4-1.9-1-2.6,3.8-2.2-.3-3.1,3.9-.9,1.6-1.8,1.6-1.7-11.4,60.5-11.8,7.6,27.1,10.9-2.3v8.4l-1.1,1.8-.6.3h0ZM807.8,258.9l-1.3.9.8,1.8,1.7.8-.4-1.6-.8-1.9h0Z"/>
      <path class="cls-4" d="M886.4,169.5h3.4l.9-.6v-1.3l-1.8-1.8.4,1-1.5,1.5h-2.3v.8l.9.4h0ZM877.4,171.3l-1.2-.6,1-.8.6-2.1,1.2-1,.8-.2.6.9,1.1.2.6-.6.5,1.9-1.3.3-2.8.7-1.1,1.3h0ZM842.5,147.9l18.4-3.8,1-1.5.3-1.7,1.9-.6.5-1.1,1.7-1.1,1.3.3,1.7,3.3,1,.4,1.1-1.3.8,1.3v1.1l-3,2.4.2.8-.9,1,.4.8-1.3.3.9,1.2-.8.7.6,1,.9-.2.3-.8,1.1.6h1.8l2.5,2.6.2,2.6h1.8c0,.1.8,1.2.8,1.2l.6,2,1,.7h3.8c0-.1.8-1,.8-1l1.6-1.2,1.1-.3-1.2-2.1-.3.9-1.5-3.6h-.8l-.4.9-1.2-1,1.3-1.1,1.8.4,2.3,2.1,1.3,2.7,1.2,3.3-1,2.8v-1.8l-.7-1-3.5,2.3-.9-.3-1.6,1v1.2l-2.3,1.2-2,2.1-2,1.9h-1.2l3.3-3.3.5-1.9-.5-.6-.3-1.3h-.9c0-.1,0,1.2,0,1.2l-1,1.2h-1.2l-.3,1.1.4,1.2-1.2,1.1-1.1-.2-.4,1-1.4-3-1.3-1.1-2.6-1.3-.6-2.2h-.8l-.7-2.6-6.5,2v-.3l-15,3.4v.7l-.9.3-.5-.7-10.5,2.4-.7-1,.5-15,12.4-2.7h-.1Z"/>
      <path class="cls-4" d="M649.8,205.1v1.4l21.5-3.5.5-1.2,3.9-5.9v-4.3l.8-2.1,2.2-.8,2-7.8,1-.5,1,.6-.2.6-1.1.8.3.9.8.4,1.9-1.4.4-9.8-1.6-2.3-1.2-3.7v-2.5l-2.3-4.4v-1.8l-1.2-3.3-2.3-3-2.9-1-4.8,3-2.5,4.6-.2.9-3,3.5-1.5-.2-2.9-2.8v-3.4l1.4-1.9,2-.2,1.2-1.7.2-4,.8-.8h1.1c0-.1.9-1.8.9-1.8l-.2-9.6-.3-1.3-1.2-1.2-1.7-1v-1.8l.6-.6,1.8.8-.3-1.7-1.9-2.7-.7-1.6-1.1-1.1h-2.2l-8.1-2.9-1.4-1.7-3.1-.3-1.2.3-4.4-2.3h-1.4l.5,1h-2.7v.5l.6.6-2.5,2.1v1.8l1.6,2.3,1.5.2v.6l-1.5.5h-2.1c0-.1-2.8,2.4-2.8,2.4v2.5l.5,5.8-2.2,3.4.8-4.5-.8-.6-.9,5.3-1-2.3.5-2.3-.5-1,.6-1.3-.6-1.1,1-1v-1.2l-1.3.6-1.3,3.1-.7.7-1.3,2.4-1.7-.2v1.2h-1.7l.2,1.5.2,2-3,1.2v1.3l1.1,1.7v5.2l-1.4,4.4-1.7,2.5,1.2,1.4.8,3.5-1,2.5-.2,2.1,1.7,3.4,2.5,4.9,1.2,1.9,1.6,6.9v8.8l-1,3.9-2,3.2-.9,3.7-2,3-1.2,1,32.4-3.4h.1ZM554,108.3l3,3.8,17,3.8,1.4,1,4,.8.7.5,2.8-.2,4.9.8,1.4,1.5-1,1,.8.8,3.8.7,1.2,1.2v4.4l-1.2,2.8h2c0,.1,1-.7,1-.7l.9.8-1.1,3.1,1,1.6,1.2.3.8-1.8,2.9-4.6,1.6-6,2.3-2-.5-1.6.5-.9,1,1.6-.3,2.2,2.9-2.2.2-2.3,2.1.6.8-1.6.7.6-.7,1.5-1,.5-1,2,1.4,1.8,1.1-.5-.5-.7,1-1.5,1.9-1.7h.8l.2-2.6,2-1.8,7.9-.5,1.9-3.1,3.8-.3,3.8,1.2,4.2,2.7.7-.2-.2-3.5.7-.2,4.5,1.1,1.5-.2,2.9-.7,1.7.4h1.8v-1l-.7-.9-1.5-.2-1.1-.8.5-1.4-.8-.3h-2.6v-.9l1.1-.8.6.8.5-1.8-.7-.7.7-.2-1.4-1.3.3-1.3v-1.9h-1.2l-1.5,1h-1.9l-.5,1.9-1.9.2-.3-1.2h-2.2l-1,1.3h-.7l-.2-.9-2.6.4v-4.8l.9-2h-.7l-1.8,1h-2.2l-3.8,2.7-6.2.3-4.1.8-1.9,1.5-1.4,1.3-2.5,1.7-.3.8-.6-1.7-1.3-.6v.6l.7.7v1.3l-1.5-.6h-.6l-.3,1.2-2-1.9-1.3-.2-1.3,1.5h-3.2l-.5-1.5-2-1.9-1.3-1.6v-.7l-1.1-1.4-2.6-1.2h-3.3l-1.1-1h-1.4l-.7.4-2.2,2.2-.7,1.1-1-.7.2-1,.8-2.1,3.2-5,.8-.2,1.7-1.9.7-1.6,3-.6.8-.6v-1l-.6-.5-4.5.2-2,.5-2.6,1.2-1.2,1.2-1.7,2.2-1.8,1-3.3,3.4-.4,1.6-7.4,4.6-4,.5-1.8.4-2.3,3-1.8.7-4.4,2.3,1.9.7h-.1ZM654.7,112.1h3.8l.6-.4-.2-2-1.7-1.8h-1.9v.6l1.1.4-1.6.8-.3,1-.6-.6-.4.8,1.3,1.2h-.1ZM579.6,70.2l-2.3.2-2.7,1.9-7.1,5.3.8,1,1.8.3,2.8-2-1.1-.5,2.3-1.6h1l3-1.9v-.9l1.5-1.8ZM620.7,133v1l2.1,1.6-.2-2.4-1.9-.2h0ZM620,135.8h1.1v1h-1v-1h-.1ZM641.4,114.5v.9l.8-.2v-.5s-.8-.2-.8-.2ZM646.1,117.6v-1.1l-1.7-.2-.6-.4h-.9l-.4.3.9.4,1.1,1.1h1.6v-.1ZM628.1,118.8v1.1l-.4.7.2,2.2.4.3h.7l.5-.8v-1.6l-.2-.6v-1.1l-1.2-.2Z"/>
      <path class="cls-4" d="M451.2,63.9l-1.1,2.8.8,1.4-.3,5.1-.5,1.1,2.7,9.1,1.3,2.5.7,14,1,2.7-.4,5.8,2.9,7.4.3,5.8v2.1c-.1,0-.2,2.2-.2,2.2l-.9,2-3.1,1.9-.3,1.2,1.7,2.5.4,1.8,2.6.6,1.5,1.9-.2,39.5h28.2l36.3-.9,18.6-.7-1.1-4.5-.2-3-2.2-3-2.8-.7-5.2-3.6-.6-3.3-6.3-3.1-.2-1.3h-3.3l-2.2-2.6-2-1.3.7-5.1-.9-1.6.5-5.4,1-1.8-.3-2.7-1.2-1.3-1.8-.3v-1.7l2.8-5.8,5.9-3.9-.4-13,.9.4.6-.5v-1.1l1-.6,1.4,1.2h.7l-1.2-2.3,4.3-3.1,3.1-3.7,1.6-.8,4.7-5.9,6.3-5.8,3.9-2.1,6.3-2.7,7.6-4.5-.6-.4-3.7.7h-2.8l-1-1.5-1.4-.9-9.8,1.2-1-2.8h-1.6l-1.7.7-3.7,3.1h-4.1l-2.1-1-.3-1.7-3.9-.8-.6-1.6-.7-1.3-1,.9h-2.6l-9.9-5.4h-2.9l-.8-.7-3.1,1.3-.8,1.3-3.3.8-1.3-.2v-1.7l-.7-.9h-5.9l-.4-1.4h-2.6l-1.1.4-2.4-1.7.3-1.4-.6-2.4-.7-1.1-.2-3-1-3.1-2.1-1.6h-2.9v8c.1,0-30.8-.4-30.8-.4l2.4,7.3h0Z"/>
      <path class="cls-4" d="M610.3,463.9h-5c0,.1-2.4-1.4-2.4-1.4l-7.9,2.5-.9-.7-.5.2v1.6l-.7.1-2.6,2.7h-.7c0-.1-.6-.8-.6-.8l-1.2-1.8.3-1.3-4.8-6.8.9-4.6,1-1.4v-1.4l-35.9,2,1.7-11.9,2.4-4.8,6-8.4-1.8-2.5h2v-3.3l-2.4-2.5.5-1.7-1.2-1-1.6-7.1.6-1.4,1.2-1.5.5-3-1.5-2.3-.5-2.2.9-.7v-.8l-1.7-1.1v-.7l1.5-.9-1.2-1.1,1.7-7.1,3.4-1.6v-.8l-1.1-1.4,2.9-5.4h1.9l1.5-1.2-.3-5.2,3.1-4.5,1.8-.6-.5-3.1,38.3-2.6,1.3,2-1.3,67,4.4,33.2-1.5,1.3h0Z"/>
      <path class="cls-4" d="M541.8,244.2l-1.1-1.1-.6-1.6-1.7-1.3-14.3.8-27.2,1.2h-25.9c0-.1,1.3,1.2,1.3,1.2l-.3,1.4,2.1,3.7,3.9,6.3,2.9,3,2,.6.9-1,1.5,2.1v1.2c-.1,0-2.8,2.6-2.8,2.6l-.5,2.3,2.5,2.5,2.6,4.7,3.2.7.5,48.1.2,10.8,39.1-.7,39.8-2,1.6,2.5v2.2l-1.7,1.5-2.8,5.1,11.2-.8,1-2,1.2-.5v-.7l-1.2-1.1-.6-1,1.7.2.8-.7-1.4-1.5,1.4-.5v-1l-.5-1v-1.3l-.7-.7.2-1h1.1l.7.7-.3,1,.8.7.8-1,1-2.7,1.4.9.7-.4,1.2-4.1-1-1,1-2,.2-.9-1.3-.8h-2.8l-1.4-1.5-1.8-3.8v-1.9l.8-.6v-1.3l-1.6-1.9-.9-2.5-2.7-4.1-4.8-1.3-7.4-7.1-.4-2.4,2.8-7.6-.4-1.9,1.2-1.1v-1.3l-2.8-1.5-3-.7-3.4,1.2-1.3-2.3.6-1.9-.7-2.4-8.6-8.4-2.2-1.5-2.5-5.9-1.2-5.4,1.4-3.7-1.5-.8h0Z"/>
      <path class="cls-4" d="M233.5,125.8l57.3,7.9,51,5.3,2-20.7,5.2-66.7-53.5-5.6-54.3-7.7-65.9-12.5-4.8,22,3.7,7.4-1.6,4.8,3.6,4.8,1.9.7,3.9,8.3v2.1l2.3,3h.9l1.4,2.1h3.2v1.6l-7.1,17-.5,4.1,1.4.5,1.6,2.6,2.8-1.4,3.6-2.4,1.9,1.9.5,2.5-.5,3.2,2.5,9.7,2.6,3.5,2.3,1.4.4,3v4.1l2.3,2.3,1.6-2.3,6.9,1.6,2.1-1.2,9,1.7,2.8-3.3,1.8-.6,1.2,1.8,1.6,4.1h.9c0,.1,2-10.6,2-10.6h0Z"/>
      <path class="cls-4" d="M389,186.4l38,1.6,3.4,3.2,1.7.2,2.1,2h1.8c0-.1,1.8-2.1,1.8-2.1l1.5.6,1-.7.7.5.9-.4.7.4.9-.4,1,.5,1.4-.6,2,.6.6,1.1,6.1,2.2,1.2,1.3.9,2.6,1.8.7,1.5-.2.5.9v2.3l.6,1.7v1.4l1.3,3.7,2.2,4.3.2,3.7,2.8,5,.4,6.1,1.3.7-.2,2.9.8,3.3-.7,2.2,1.8,4.4,1.3,1.3-.3,1.4,2.1,3.7,3.9,6.3h-32.4l-43.7-1.2-36-2,1.4-22.1-33.1-2.4,3.7-44.2,51.1,3.5h0Z"/>
      <path class="cls-4" d="M154.1,292.1l-3.4,17.5-2.4,2.9h-2l-1.2-2.7-3.7-1.4-3.5.6-1,13.6.5,4.9-.5,2.9-1.4,3-70.4-105-1.1-3.5,16.4-63.1,47,11.2,24.4,5.4,23.3,4.7-21,109h0Z"/>
      <path class="cls-4" d="M849.1,88.9h-1.3l-1-1-1.9,1.4-.5,6.1,1.2,2.3-1.1,3.5,2.1,2.8-.4,1.7v1.3l-1,2.1-1.4.4-.6,1.3-2.1,1-.7,1.5,1.4,3.4-.5,2.5.5,1.5-1,1.9.4,1.9-1.3,1.9.2,2.2-.7,1.1.7,4.5.7,1.5-.5,2.6.9,1.8-.2,2.5-.5,1.3v1.4l2,2.6,18.4-3.8,1-1.5.3-1.7,1.9-.6.5-1.1,1.7-1.1,1.3.3.8-4.8-2.3-1.4-.8-2.2-3.2-2-.6-4-11.9-36.8-.5,1.7h0Z"/>
      <path class="cls-4" d="M829,190.7l-14.6-4.9-1.8,2.5v2.2l-2.9,5.4,1.5,1.8-.7,2-1,1,.5,3.6,2.7.9,1,2.8,2.1,1.1,4.2,3.2-3.3,2.6-1.6,2.3-1.8,3-1.6.6-1.4,1.7-1,2.2-.3,2.1.8.9.4,2.3,1.2.6,2.4,1.5,1.8.8,1.6.8v1.1l.9.1,1.1-1.2.8.4,2.1.2-.2,2.9.2,2.5,1.8-.7,1.5-3.9,1.6-4.8,2.9-2.8.6-3.5-.6-1.2,1.7-2.9v-1.2l-.7-1.1,1.2-2.7-.3-3.6-.6-8.2-1.2-1.4v1.4l.5.6h-1.1l-.6-.4-1.3-.2-.9.6-1.2-1.6.7-1.7v-1l1.7-.7.8-2.1.4-5.9h0Z"/>
      <path class="cls-4" d="M344,328.2h-.8l-7.9,99.3-31.8-2.6-34.4-3.6-.3,3,2,2.2-30.8-4.1-1.4,10.2-15.7-2.2,17.4-124.1,52.6,6.5,51.7,4.8-.6,10.6h0Z"/>
      <path class="cls-4" d="M859.4,176.9h-1.3c0,.1-.5,1.1-.5,1.1l1.8-1.1ZM828.8,199.6l.7.6,1.3-.3,1.1.3.9-1.3h1.9l2.4-.9,5.1-2.1-.5-.5-1.9.8-2,.9.2-.8,2.6-1.1.8-1h1.2c0,.1,4.1-2.2,4.1-2.2v.7l-4.2,3,4.5-2.8,1.7-2.2h1.5c0-.1,4.5-3.2,4.5-3.2l3.2-3.1,3-2.3,1-1.2h-1.7c0-.1-1,1.1-1,1.1l-.2.7-.9.7-.8-1.1-1.7,1v.9l-1-.2.5-.9-1.2-.7-.6.9.9.3.2.5-.3.5-1.4,2.6h-1.9l.9-1.8.9-.6.3-1.7,1.4-1.6.9-.8,1.5-.7-1.2-.2-.7.9h-.7l-1.1.8-.2,1-2.2,2.1-.4.9-1.4.9-7.7,1.9.2.9-.9.7-2,.3-1-.6-.2,1.1-1.1-.4v1l-1.1-.1-1.2.5-.2,1.1h-1l.2,1h-.7l.2,1-1.8.4-1.5,2.3-.2,2.1h0ZM828,199.2l-1.6.4v1l-.7,1.6.6.7,2.4-2.3v-.9l-.7-.5ZM817.9,104l-.6,1.9,1.4.9-.4,1.5.5,3.2,2.2,2.3-.4,2.2.6,2-.4,1-.3,3.8,3.1,6.7-.8,1.8.9,2.2.9-1.6,1.9,1.5,3,14.2-.5,2,1.1,1-.5,15,.7,1,2.8,16.3,1.8,1.5-3.5,3.4,1.7,2.2-1.3,3.3-1.5,1.7-1.5,2.3-.2-.7.4-5.9-14.6-4.9-1.6-1.1-1.9.3-3-2.2-3-5.8h-2l-.4-1.5-1.7-1.1-70.5,13.9-.8-6,4.3-3.9.6-1.7,3.9-2.5.6-2.4,2.3-2,.8-1.1-1.7-3.3-1.7-.5-1.8-3-.2-3.2,7.6-3.9,8.2-1.6h4.4l3.2,1.6h.9c0-.1,1.8-1.7,1.8-1.7l3.4-.7h3l2.6-1.3,2.5-2.6,2.4-3.1,1.9-.4,1.1-.5.4-3.2-1.4-2.7-1.2-.7,2-1.3v-1.8h-1.6l-2.3-1.4v-3.1l6.1-6.1.7-2.4,3.7-6.3,5.9-6.4,2.1-1.7h2.5l20.6-5.1s.8,1.7.8,1.7Z"/>
      <path class="cls-4" d="M815.5,295.4l-29.1,6.1-39.4,7.3-29.4,3.5v5.2h-1.5c0-.1-1.4,1.1-1.4,1.1l-2.4,5.2-2.6-1.1-3.5,2.5-.7,2.1-1.5,1.2-.8-.8v-1.5l-.9-.2-4,3.3-.6,3.4-4.7,2.4-.5,1.2-3.2,2.6-3.6.5-4.6,3-.8,4.1-1.3.9h-1.5c0-.1-1.4,1.2-1.4,1.2v4.9l21.3-3,4.4-1.9h1.3c0-.1,7.3-4.4,7.3-4.4l23.2-2.2.4.5-.2,1.4.7.3,1.2-1.5,3.3,3v2.6l19.8-2.8,24.5,17.1,4-2.2,3-.7h1.7l1.1,1.1.8-2,.6-5,1.7-3.9,5.4-6.1,4.1-3.5,5.4-2.3,2.5-.4,1.3.4.7,1.1,3.3-6.6,3.3-5.3-.7-.3-4.4,6.8-.5-.8,2-2.2-.4-1.5-2-.5,1,1.3h-1.2c0,.1-1.2-1.7-1.2-1.7l-1.2,2-1.6.2,1-2.7.7-1.7-.2-2.9h-2.2c0-.1.9-1,.9-1l1.1.3h2.7c0,.1.8-.4.8-.4h2.3l2-1.9.2-3.2,1.3-1.4,1.2-.2,1.3-1-.5-3.7-2.2-3.8-2.7-.2-.9,1.6-.5-1-2.7.2-1.2.4-1.9,1.2-.3-.4h-.9l-1.8,1.2-2.6.5v-1.3l.8-1,1,.7h1l1.7-2.1,3.7-1.7,2-2.2h2.4l.8,1.3,1.7.8-.5-1.5-.3-1.6-2.8-3.1-.3-1.4-.4,1-.9-1.3-1.3-1.6h0ZM822.5,326.4l2.7-2.5,4.6-3.3v-3.7l-.4-3.1-1.7-4.2,1.5,1.4,1,3.2.4,7.6-1.7.4-3.1,2.4-3.2,3.2v-1.4h-.1ZM824.4,307.1l-.9-.2v1l2.5,2.2-.2-1.4-1.4-1.6h0ZM827.3,309.2l-1.4-2.8-2.2-3.4-2.4-3-2.2-4.3-.8-.7,2.2,4.3.3,1.3,3.4,5.5,1.8,2.1,1.3,1h0Z"/>
      <path class="cls-4" d="M451.2,63.9l-1.1,2.8.8,1.4-.3,5.1-.5,1.1,2.7,9.1,1.3,2.5.7,14,1,2.7-.4,5.8,2.9,7.4.3,5.8v2.1c-.1,0-29.6-.4-29.6-.4l-46-2.1-39.2-2.9,5.2-66.7,44.5,3.4,55.3,1.6,2.4,7.3h0Z"/>
      <path class="cls-4" d="M672.2,204.1l1.9-.4,3,1.3,2.1.6.7.9h1l1-1.5,1.3.8h1.5v1l-3.2.5-2,1.1,1.9.8,1.6-1.5,2.4-.4,2.2,1.5h1.5c0-.1,2.5-1.8,2.5-1.8l3.6-2.1,5.2-.3,4.9-5.9,3.8-3.1,9.3-5.1,4.9,29.9-2.2,1.2,1.4,2.1v2.2l.5,2-1.1,3.4v5.4l-1.1,3.6.5,1.1-.4,2.2-1.1.5-2,3.3-1.8,2h-.6l-1.8,1.7-1.3-1.2-1.5,1.8-.3,1.2h-1.3l-1.3,2.2v2.1l-.9.5,1.4,1.1v1.9l-1,.2-.7.8-1,.5-.6-2.1-1.6-.5-1,2.3-.3,2.2-1.1,1.3,1.3,3.6-1.5.8-.4,3.5h-1.5l-3.2,1.4-1.2-2.1-3.5-1.4-.8-2.9-.5-.8-3.4,1.8-.6,1.7h-.9l-1.3.7-1.2-.8-3-.8-1.9.8v1l-2.2-.2-1.9-2.1-2.3.2-4.1-.7v-1l-2.2-3.4-2.9-1.2-1.9.8h-2.2c0-.1-1.3-.6-1.3-.6l-6.6-57.2,21.4-3.5.9,1.1h0Z"/>
      <path class="cls-4" d="M488,393.9l-4.6-3.8-2.2-.9-.5,1.6-5.1.3-.6-1.5-5,2.5-1.6-.7-3.7.3-.6,1.7-3.6.9-1.3-1.2h-1.2c0,.1-2-1.7-2-1.7l-2.1.7-2-.5-1.8-2-2.5,4.2-1.2.8-1-1.8.3-2-1.2-.7-2.3,2.5-1.7-1.2v-1.5c-.1,0-1.4.5-1.4.5l-2.6-1.7-3,2.6-2.3-1.1.7-2.1h-2.3c0,.1-1.9-2.9-1.9-2.9l-3.5-1.1-2,2.3-2.3-2.2-1.4.4h-2c0,.1-3.5-1.8-3.5-1.8h-2.3c0,.1-1.2-.6-1.2-.6l-.5-2.9-2.3-1.7-1.1,1.5-1.4-1-1.2-.4-1.1,1-1.5-.3-2.5-3-2.7-1.3,1.4-42.7-52.6-3.2.6-10.6,16.5,1,67.7,2.9h62c0,.1.2,10.9.2,10.9l4.1,24.4-.7,39-6.4-1.9h0Z"/>
      <path class="cls-4" d="M80.4,161.8l47,11.2,8.5-37.3,2.9-5.8.4-2.1.8-.9-.9-2-2.9-1.2.2-4.2,4-5.8,2.5-.8,1.6-2.3v-1.6c-.1,0,1.7-1.6,1.7-1.6l3.2-5.5,4.2-4.8-.5-3.2-3.5-3.1-1.6-3.6-30.3-7.3-2.8,1-5.4-.9-1.8-.9-1.5,1.2-3.3-.4-4.5.5-.9.7-4.2-.4-.8-1.6-1.2-.2-4.4,1.3-1.6-1.1-2.2.8-.2-1.8-2.3-1.2-1.5-.2-1-1.1-3,.3-1.2-.8h-1.2l-1.2.9-5.5.7-6.6-4.2,1.1-5.6-.4-4.1-3.2-3.7h-3.7l-.4-1,.4-1.2-.7-.8h-1l-1.1,1.4-1.5-.2-.5-1.1h-1l-.7.5-2-1.9v4.3l-1.3,1.3-1.1,3.5v2.3l-4.6,12.3-13.2,31.3-3.2,4.6h-1.6v2l-5.2,7.1-.3,3.3,1,1.3v2.4c.1,0-1.1,1.1-1.1,1.1l-1.2,3v5.7c.1,0,1.3,2.9,1.3,2.9l66.1,18.6h.1Z"/>
      <path class="cls-4" d="M812.8,184.7l-1.9.3-3-2.2-3-5.8h-2l-.4-1.5-1.7-1.1-70.5,13.9-.8-6-4.2,3.4h-.9c0,.1-2.7,3.1-2.7,3.1l-3.3,1.7,4.9,29.9,3.2,19.7,17.4-2.9,60.5-11.8,1.2-2.1,1.5-1.1,1.6-.3,1.6.6,1.4-1.7,1.6-.6,1.8-3,1.6-2.3,3.3-2.6-4.2-3.2-2.1-1.1-1-2.8-2.7-.9-.5-3.6,1-1,.7-2-1.5-1.8,3-5.4v-2.2l1.7-2.5-1.6-1.1h0Z"/>
      <path class="cls-4" d="M869.7,166l-1.3-1.1-2.6-1.3-.6-2.2h-.8l-.7-2.6-6.5,2,3.2,12.3-.4,1.1.4,1.8,5.6-3.6v-3l-.7-.8.4-.6v-1.3l-1-.7,1.2-.4-.9-1.6,1.8.7.3,1.4.7,1.2-1.4-.8,1.1,1.7-.3,1.2-.6-1.1v2.5l.6-.9.4.9,1.3-1.5-.2-2.5,1.4,3.1,1-.9-1.4-3h0ZM865,178.2h.9l.5-.6-.8-1.3-.7.7v1.2h.1Z"/>
      <path class="cls-4" d="M758.8,345.5l-19.7,2.8v-2.6l-3.4-3-1.2,1.5-.7-.3.2-1.4-.4-.5-23.2,2.2-7.3,4.3h-1.3c0,.1-4.4,2-4.4,2v1.9l-2,1-1.4,3.2.2,1.3,6.1,3.8,2.6-.3,3.1,4,.4,1.7,4.2,5.1,2.6,1.7,1.4.2,2.2,1.6,1.1,2.2,2,1.6,1.8.5,2.7,2.7v1.4l2.7,2.8,5,2.3,3.6,6.7.3,2.7,3.9,2.1,2.5,4.8.8,3.1,4.2.4.8-1.5h.6l1.8-1.5.5-2,3.2-2.1.3-2.4-1.2-.9.8-.7.8.4,1.3-.4,1.8-2.1,3.8-1.8,1.6-2.4v-.7l4.9-4.4v-.5l-1-.8,1.1-1.5h.8l.4.5.7-.8h1.3l.6-1.5,2.3-2.1-.3-5.4.8-2.3,3.6-6.2,2.4-2.2,2.2-1.1-24.5-17.1h0Z"/>
      <path class="cls-4" d="M383,121.2l46,2.1,29.5.4v2.2c-.1,0-1,2-1,2l-3.1,1.9-.3,1.2,1.7,2.5.4,1.8,2.6.6,1.5,1.9-.2,39.5h-2.2c0-.1-.1,1.5-.1,1.5l1.3,1.5v1.1c-.1,0-1.1.5-1.1.5l.4,1.6,1.3.4.7,2-1.7,5.1-1,4.3,1.3,1.2.3,1.3.7,1.7-1.5.2-1.8-.7-.9-2.6-1.2-1.3-6.1-2.2-.6-1.1-2-.6-1.4.6-1-.5-.9.4-.7-.4-.9.4-.7-.5-1,.7-1.5-.6-1.8,2h-1.8c0,.1-2.1-1.9-2.1-1.9l-1.7-.2-3.4-3.2-38-1.6-51.1-3.5,3.9-43.9,2-20.7,39.2,2.9h0Z"/>
      <path class="cls-4" d="M607.4,360.4l45.7-4,22.9-2.9v-4.9l1.5-1.3h1.5c0,.1,1.3-.8,1.3-.8l.8-4.1,4.6-3,3.6-.5,3.2-2.6.5-1.2,4.7-2.4.6-3.4,4-3.3.8.2v1.5l.9.8,1.5-1.2.7-2.1,3.5-2.5,2.6,1.1,2.4-5.2,1.4-1.2h1.5c0,.1,0-5.1,0-5.1l.3-.7-4.6.5-.2,1-28.9,3.3-5.6,1.4-20.5,1.4-5.2.8-17.4,1-2.6.8-22.6,2-.7-.6h-3.7l1.2,3.2-.6.9-23.3,1.5-.8,1-.8-.7h-1v1.3l.6,1v1l-1.5.5,1.4,1.5-.8.7-1.7-.2.6,1,1.2,1.1v.7l-1.2.5-1,2v.6l1.5,1-.4.7h-1.5v.5l.9.9v.8l-1.3.2-.5.8-1.6.2-.9.9.6.9h1.1c0-.1.5.8.5.8l-1.6,1.3.4,1.5-2-.6v.7l.3,1.1-.3,1.4-1.3-.8-.8.8h1.1v1.6l-.6,1,1.1.9-.3,1.5.8.7-.7,1-1.2-.5-.9,2.2-1.6.7,38.3-2.6h.1Z"/>
      <path class="cls-4" d="M268.8,424.3l.3-3,34.4,3.6,31.8,2.6,7.9-99.3h.8l52.6,3.2-1.4,42.7,2.7,1.3,2.5,3,1.5.3,1.1-1,1.2.4,1.4,1,1.1-1.5,2.3,1.7.5,2.9,1.2.7h2.3c0-.1,3.5,1.8,3.5,1.8h2c0-.1,1.4-.5,1.4-.5l2.3,2.2,2-2.3,3.5,1.1,1.9,3h2.3c0-.1-.7,2-.7,2l2.3,1.1,3-2.6,2.6,1.7,1.3-.5v1.5c.1,0,1.8,1.2,1.8,1.2l2.3-2.5,1.2.7-.3,2,1,1.8,1.2-.8,2.5-4.2,1.8,2,2,.5,2.1-.7,2,1.8h1.2c0-.1,1.3,1.1,1.3,1.1l3.6-.9.6-1.7,3.7-.3,1.6.7,5-2.5.6,1.5,5.1-.3.5-1.6,2.2.9,4.6,3.8,6.4,1.9,2.6,2.3,2.8-1.3,3.2.8.2,11.9.5,19.9.7,3.4,2.6,2.8.7,5.4,3.8,4.6.8,4.3h1v7.3l-3.4,6.4,1.3,2.3-1.3,1.5.7,3v4.3l-2.3,3.5v.8l-1.8,1.2,1,1.8,1.2,1.1-3.5.3-8.4,3.9-3.5,1.4-1.8,1.8-.7-.5,2.1-2.3,1.8-.7.5-.9h-2.9c0-.1-.7-.9-.7-.9l.8-2-.9-1.8h-.6l-2.4,1.3-1.9,2.6.3,1.7,3.3,3.4,1.3.3v.8l-2.3,1.6-4.9,4-4,3.9-3.2,1.4-5,3-3.7,2-4.5,1.9-4.1,2.5,3.2-3v-1.1l.6-.8-.2-1.8h-1.5c0-.1-1.1,1.4-1.1,1.4l-2.6,1.3-1.8-1.2-.3-1.7h-1.5l.8,2.2,1.4.7,1.2.9,1.8,1.6-.7.8-3.9,1.7h-1.7l-1.2-1.1-.5,2.1.5,1.1-2.7,2-1.5.2-.8.7-.4,1.7-1.8,3.3-1.6.7-1.6-.6-1.8,1.1.3,1.4,1.3.8,1,.8-1.8,3.5-.3,2.8-1,1.7-1.4,1-2.9.4,1.8.6,1.9-.6-.4,3.2h-1.1l.2,1.1.3,1.4-1.3.9v3.1l1.6,1.4.6,3.1-.4,2.2-1,.4.4,1.5,1.1.4.8,1.7v2.6l1.1,2.1,2.2,2.6v.7c-.1,0-2.3-.2-2.3-.2l-1.6,1.4.2,1.4-.9-.3-1.4-.2-3.4-3.7-2.3-.6h-7.1l-2.8-.8-3.6-3-1.7-1h-2.1l-3.2-2.5-5.4-1.6v-1.3l-1.4-1.8-.9-4.7-1.1-1.7-1.7-1.4v-1.6l-1.4-.6.6-2.6-.3-2.2-1.3-1.4.7-3-.8-3.2-1.7-1.4h-1.1l-4-3.5v-1.9c.1,0-.7-1.7-.7-1.7l-.8-.2-.9-2.4-2-1.6-2.9-2.5-.2-2.1-1-.7.2-1.6.5-.7-1.4-1.5v-.7c.1,0-1.9-2.2-1.9-2.2v-2.1c.1,0-2.6-4.9-2.6-4.9v-1.7c-.1,0-1.9-3.1-1.9-3.1l-5.1-4.8v-1.1l-3.3-1.7v-1.8c-.1,0-1.3-.4-1.3-.4v-.7l-.8-.2-2.1-2.8h-.8l-.7-.6-1.3,1.1h-2.2l-2.6-1.1h-4.6l-4.2-2.1-1.3,1.9-2.2-.6-3.3,1.2-1.7,2.8-2,3.2-1.1,4.4-1.4,1.2h-1.1c0,.1-.9,1.7-.9,1.7l-1.3.6v1.8c-.1,0-3,.1-3,.1l-1.8-1.5h-1l-2-2.9-3.6-.5-1.7-2.3-1.3-.2-2.1-.8-3.4-3.4.2-.8-1.6-1.2h-1c0-.1-3.4-3.2-3.4-3.2v-2c-.1,0-2.4-4-2.4-4l.2-1.6-.7-1.3.8-1.5v-2.4c-.1,0-2.7-4.1-2.7-4.1l-.6-4.2-1.6-1.6v-1l-1.2-.2-.7-1.1-2.4-1.7h-.9c0-.1-1.9-1.7-1.9-1.7v-1.1l-2.9-1.8-.6-2.1-2.6-2.3-3.2-4.4-3-1.3-2.1-1.8.2-1.2-1.3-1.4-1.7-3.7-2.4-1-2-2.2h0ZM443.7,562.6h.8l-.6-4.7-3.5-12.3-.2-8.1,4.9-10.5,6.1-8.2,7.2-5.1v-.7h-.8l-2.6,1-3.6,2.3-.7,1.5-8.2,11.6-2.8,7.9v8.8l3.6,12,.4,4.5h0Z"/>
      <path class="cls-4" d="M219.7,213.2l3.3-21.9-47.9-8.2-21,109,46.2,8.2,40,6,11.5-88.3-32.1-4.8h0Z"/>
      <path class="cls-4" d="M845.6,97.7l-1.1,3.5,2.1,2.8-.4,1.7v1.3l-1,2.1-1.4.4-.6,1.3-2.1,1-.7,1.5,1.4,3.4-.5,2.5.5,1.5-1,1.9.4,1.9-1.3,1.9.2,2.2-.7,1.1.7,4.5.7,1.5-.5,2.6.9,1.8-.2,2.5-.5,1.3v1.4l2,2.6-12.4,2.7-1.1-1,.5-2-3-14.2-1.9-1.5-.9,1.6-.9-2.2.8-1.8-3.1-6.7.3-3.8.4-1-.6-2,.4-2.2-2.2-2.3-.5-3.2.4-1.5-1.4-.9.6-1.9-.8-1.7,27.3-6.9,1.2,2.3h0Z"/>
      <path class="cls-4" d="M821.2,260.7l-1.1,2.8.5,1.1.4-1.1.8-3.1-.6.3h0ZM786.6,253.7l-.7-1h1c0-.1,1-1,1-1l.4-1.8-.2-.5v-.5l-.2-.7-.6-.5h-.4c0-.1-.5-.5-.5-.5l-.6-.6h-1.6c0-.1-.4-.5-.4-.5v-.5l-1.6-.6-.8.3h-1.2c0-.1-.7-.8-.7-.8l-.5-.2-.2-.7.6-.8v-.9l-1.2-.2-1-.9h-.9c0,.1-1.6-.2-1.6-.2l-.4.7-.4,1.6-.5,2.3-10-5.2-.2.9.9,1.6-.8,2.3v2.9l-1.1.8-.5,2.1-.9.8-1.4,1.8-.9.8-1,2.5-2.4-1.1-2.3,8.5-1.3,1.6-2.8-.5-1.3-1.9-2.3-.7v4.7l-1.5,1.7.4,1.5-2.1,2.2.4,1.9-3.7,6.3-1,3.3,1.5,1.2-1.5,1.9v1.4l-2.2,2-.7-1.1-4.3,3.1-1.5-1-.6,1.4.8.5-.5.9-5.5,2.4-3-1.8-.8,1.7-1.9,1.8h-2.3c0,.1-4.4-2.2-4.4-2.2v-1.5l-1.6-.7.8-1.2-.7-.6-4.9,6.6-2.9,1-3,3-.4,2.2-2.1,1.3v1.7l-1.5,1.4-1.8.5-.5,1.9-1,.4-6.9,4.2,28.9-3.3.2-1,4.6-.5-.3.7,29.4-3.5,39.4-7.3,29.1-6.1-.6-1.2h.4c0-.1.9.8.9.8v-1.4l-.4-1.9,1.6,1.2.9,2.1v-1.3l-3.4-5.5v-1.2l-.7-.8-1.3.7.5,1.4h-.8l-.4-1-.6.9-.9-1.1h-2.1c0-.1-.2.6-.2.6l1.5,2.1-1.4-.7-.5-1-.4.8h-.8c0,.1-1.5,1.8-1.5,1.8l.3-1.6v-1.4l-1.5-.7-1.8-.5-.2-1.7-.6-1.3-.6,1.1-1.7-1-2,.3.2-.9,1.5-.2.9.5,1.7-.8.9.4.5,1v.7l1.9.4.3.9.9.4.9,1.2,1.4-1.6h.6v-2.1l-1.4,1-.6-.9,1.5-.2-1.2-.9-1.2.6v-1.7l-1.8.2-2.2-1.1-1.8-2.2,3.6,2.2.9.3,1.7-.8-1.7-.9.6-.6-1-.5.8-.2-.3-.9,1.1.9.4-.8.4,1.3,1.2.8.6-.5-.5-.6v-2.5l-1.2-.1-1.6-.8.9-1.1h-2c0-.1-.4-.6-.4-.6l-1.4.6-1.4-.8-.5-1.2-2.1-1.2-2.1-1.8-2.2-1.9,3,1.3.9,1.2,2.1.7,2.3,2.5.2-1.7.6,1.3,2.3.5v-4l-.8-1.1,1.1.4v-1.6l-3-1.4-1.6-.2-1.3-.2.3-1.2-1.5-.3v-.6h-1.9l-.2.8-.7-1h-2.7l-1-.4-.2-1-1.2-.6-.4-1.5-.6-.4-.7,1.1-.9.2-.9.7h-1.5l-.9-1.3.4-3.1.5-2.4.6.5.3-.4h0ZM808.5,265.3h.9v-.7h-.8c0,.1-.1.7-.1.7h0ZM816,279.5l-1,2.7,1.2-1.3-.2-1.4h0ZM814.2,264.2l.7.3-.2,1.9-.5-.5-1.3,1,1,.4-1.8,4.4v8.1l2,3.1.5-1.5.4-2.7-.3-2.3.7-.9-.2-1.4,1.2-.6-.6-.5.5-.7.8,1.1-.2,1.1-.4,3.9,1.1-2.2.4-3.1v-3l-.2-2,.6-2.3,1.1-1.8v-2.2l.4-.9-4.6,1.6-.7.8-.4.9h0Z"/>
      <path class="cls-4" d="M148.4,78.9l.7,4-1.1,4.3-30.3-7.3-2.8,1-5.4-.9-1.8-.9-1.5,1.2-3.3-.4-4.5.5-.9.7-4.2-.4-.8-1.6-1.2-.2-4.4,1.3-1.6-1.1-2.2.8-.2-1.8-2.3-1.2-1.5-.2-1-1.1-3,.3-1.2-.8h-1.2l-1.2.9-5.5.7-6.6-4.2,1.1-5.6-.4-4.1-3.2-3.7h-3.7l-.4-1,.4-1.2-.7-.8h-1l-2.1-1.4-1.2.4h-2l-.7-1.6-1.6-.3,2.5-7.5-.7,6,.5.5v-2l.8-.2,1.1,2.3-.5-2.2,1.2-4.2,1.8.4-1.1-2-1,.3-1.5-.4.2-4.2.2,1.5.9.5.6-1.6h3.2l-2.2-1.2-1.7-1.9-1.4,1.6,1.2-3.1-.3-4.6-.2-3.6.9-6.1-.5-2-1.4-2.1v-4l.5-2.7,2-2.3-.7-1.4.2-.6h.9c0,.1,7.8,7.7,7.8,7.7l4.7,1.9,5.1,2.5h3.2c0-.1.2,2.9.2,2.9l1-1.6h.7l.6,2.7.5-2.6,1.4-.2.5.7-1.1.6v1.6l.8-1.5h1.1l-.4,2.6-1.1-.8.4,1.4v1.5l-.9.7-2.5,2.9,1.2-3.4-1.6.4-.4,2.1-3.8,2.8-.4,1-2.1,2.2v1h2.1l2.4-.2.5-.9-3.9.5v-.6l2.6-2.8,1.8-.8,1.9-.2,1-1.6,3-2.3v-1.4h1.1v4h-1.4l-.6.8-1.1-.9.3,1.1v1.7l-.7.7-.3-1.6-.8.8.7.6-.9,1.1h1.3l.7-.5v2l-.9,1.9-.9,1v1.8l-1.1-.2-.2-1.4.9-1.1-.8-.5-.8.7-.7,2.2-.8.9v-2l.7-1.1-.2-1.1-1.2,1.2v2.2l-.5.4-2.1-.4-1.3,1.2,2.2-.6-.2,2.2,1-1.8.4,1.4.5-1,.7,1.8h.7l.7-.8h.6l2-2,.2-1.2.8.6.3.9.7-.3v-1.2h1.4l.2-2.9v-2.7l.8.3-.7-2.1,1.4-.8.2-2.4,2.3-2.2h1c0,.1.3-1.3.3-1.3l-1.2-1.4v-3.5l-.9.9.7,2.9h-.6c0,.1-.6-1.8-.6-1.8l-.6-.5.3-2.3h1.8c0-.1.3.6.3.6l.3-1.6-1.6-1.7-.6-1.6-.2,2,.9,1.1-.7.4-1-.8-1.8,1.3,1.5.5.2,2.4-.3,1.8.9-1.3,1.4,2.3-.4,1.9h-1.5v-1.2l-1.5-1.2.5-3-1.9-2.6,2.7-3,.6-4.1h.9l1.4,3.2v-2.6l1.2.3v-3.3l-.9-.8-1.2,2.5-1-3h1.3c0-.1-1.5-5-1.5-5l1.9-.6,25.4,7.5,31.7,8,23.6,5.5s-12.7,56.1-12.7,56.1ZM69.7,39.5h.5v.8l-.4.3v.6l-.6.4-.2-.9.5-.4s.2-.8.2-.8ZM74.7,35.2l-1.2,1.9v.8l.3.2.5-.6h1.1s-.7-2.3-.7-2.3ZM74.3,13.6l.5.6,1.3-.3.2-1,1.2-1.8-1-.4-.7,1.6v-1.6l-1.2.2-.7,1.4s.4,1.3.4,1.3ZM77.5,8.1l.7,1.5-.9.2-.8.4-.2-2.4s1.2.3,1.2.3ZM74.8,6.5l-1.1-.2.5,1.4.6-1.2ZM73.8,9l.8.4-.4,1.1,1.7-.5-.2-2.2-.9-.2-1,1.4ZM71.1,8.6l.3,2.7,1.6,1.3.6-1.9-1.1-2.2h-1.4v.1ZM73,7.5l-1.1-1h-.9c0,.1,1.8,1.6,1.8,1.6l.2-.6ZM76.2.5h-1.2v.8l1.2.6V.5ZM75.3,33l.4-2.7h-1.1l-.2,1.9s.9.8.9.8Z"/>
      <path class="cls-4" d="M709.9,292.8l-.8,1.2,1.5.7v1.5l4.5,2.3h2.3c0-.1,1.9-1.9,1.9-1.9l.8-1.7,3,1.8,5.5-2.4.5-.9-.8-.5.6-1.4,1.5,1,4.3-3.1.7,1.1,2.3-2v-1.4l1.4-1.9-1.5-1.2,1-3.3,3.7-6.3-.4-1.9,2.1-2.2-.4-1.5,1.4-1.7v-4.7l2.4.7,1.3,1.9,2.8.5,1.3-1.6,2.3-8.5,2.4,1.1,1-2.5.9-.8,1.4-1.8.9-.8.5-2.1,1.2-.8v-2.9l.7-2.3-.9-1.6.2-.9,10,5.2.5-2.3.4-1.6.4-.7-.9-.4.2-1.6-1-.5-.2-.7h-.7l-.8-1.2.2-1-2.6.4-2.2-1.6-1.4.3-.9,1.4h-1.3l-1.7,2.9-3.3.4-1.9-1-2.6,3.8-2.2-.3-3.1,3.9-.9,1.6-1.8,1.6-1.7-11.4-17.4,2.9-3.2-19.7-2.2,1.2,1.4,2.1v2.2l.5,2-1.1,3.4v5.4l-1.1,3.6.5,1.1-.4,2.2-1.1.5-2,3.3-1.8,2h-.6l-1.8,1.7-1.3-1.2-1.5,1.8-.3,1.2h-1.3l-1.3,2.2v2.1l-.9.5,1.4,1.1v1.9l-1,.2-.7.8-1,.5-.6-2.1-1.6-.5-1,2.3-.3,2.2-1.1,1.3,1.3,3.6-1.5.8-.4,3.5h-1.5l-3.2,1.4v1.1l.5,1-.6,3.6,1.9,1.6.8,1.1,1,.6v.9l4.3,5.6h1.4l1.5,1.8,1.2.3h1.4c0-.1.7.5.7.5h0Z"/>
      <path class="cls-4" d="M597.5,139.3l-2.9.8.2,2.3-2.4,3.4-.2,3.1.6.7.8-.7.5-1.6,2-1.1,1.6-4.2,3.5-1.1.8-3.3.7-.9.4-2.1,1.8-1.1v-1.5l1-.9h1.4v2.1h-1c0,.1.5,1.3.5,1.3l-.7,2.2h-.6c0,.1-1.2,4.6-1.2,4.6l-.7.5-2.8,7.2-.3,4.2.6,2v1.3l-2.3,1.9.3,1.9-.9,3.1.3,1.6.4,3.7-1.1,4.1-1.5,5,1,1.5-.3.3.8,1.7-.5,1.1,1.1.9v2.7l1.3,1.5-.4,3,.3,4-45.9,2.8-1.3-2.8-3.3-.7-2.7-1.5-2-5.5v-2.5l1.7-3.3-.6-1.1-2.1-1.6-.2-2.6-1.1-4.5-.2-3-2.2-3-2.8-.7-5.2-3.6-.6-3.3-6.3-3.1-.2-1.3h-3.3l-2.2-2.6-2-1.3.7-5.1-.9-1.6.5-5.4,1-1.8-.3-2.7-1.2-1.3-1.8-.3v-1.7l2.8-5.8,5.9-3.9-.4-13,.9.4.6-.5v-1.1l1-.6,1.4,1.2h3.3l6.8-2.6.3-1h1.2l.7-1.2.4.8,1.8-.9,1.8-1.7.3.5,1-1,2.2,1.6-.8,1.6-1.2,1.4.5,1.5-1.4,1.6.4.9,2.3-1.1v-1.4l3.3,1.9,1.9.7,1.9.7,3,3.8,17,3.8,1.4,1,4,.8.7.5,2.8-.2,4.9.8,1.4,1.5-1,1,.8.8,3.8.7,1.2,1.2v4.4l-1.2,2.8h2c0,.1,1-.7,1-.7l.9.8-1.1,3.1,1,1.6,1.2.3-.3,3v-.1ZM548,102h-.5l-1.5,1.7.2.5,1.5-.6v-.6l.9-.3-.6-.7h0ZM549.6,100.9l-1,.3-.2.7h.9l.3-1ZM548.3,99.3l-.2.9h1.7l.6-.4v-1l-2.1.5ZM551.1,96.3l-.3,1.9,1.2-.5v-1.4h-.9ZM609.4,128.2l-2,.3-.4,1.3,1.3,1.7,1.1-3.3h0Z"/>
      <path class="cls-4" d="M341.8,139l-51-5.3-57.3-7.9-2,10.7-8.5,54.8-3.3,21.9,32.1,4.8,44.9,5.7,37.5,3.4,3.7-44.2,3.9-43.9h0Z"/>
      <path class="cls-4" d="M790,247.3l-2.6-1.8-1,1.7.5.4h.4c0,.1.6.6.6.6l.3.7v.5l.1.5,1.7-2.6h0Z"/>
      <circle class="cls-4" cx="788.1" cy="247.4" r="5"/>
    </g>
    <g id="borders">
      <path class="cls-1" d="M674.1,442.7l-48.8,5.1-.5,2.9,2.5,2.8,1.7.7.9,1.2-.4,7.3-1.1.6"/>
      <path class="cls-1" d="M653.1,356.4l12.9,45.8,2.9,6.1,1.8,1.9v3.2l1.7,1,.2,1.1-2.2,3.8-.3,3.7-.5,2.6,2.4,5.7-.6,6.3.5,1.4,1.5,1.5.7,2.2"/>
      <path class="cls-1" d="M607.4,360.4l1.3,2-1.3,67,4.4,33.2"/>
      <path class="cls-1" d="M607.4,360.4l45.7-4"/>
      <path class="cls-1" d="M503.2,409.5l52.3-1.3"/>
      <path class="cls-1" d="M578.2,340.2l-11.2.8,2.8-5.1,1.7-1.5v-2.2l-1.6-2.5-39.8,2-39.1.7"/>
      <path class="cls-1" d="M555.5,408.2l1.2-1.5.5-3-1.5-2.3-.5-2.2.9-.7v-.8l-1.7-1.1v-.7l1.5-.9-1.2-1.1,1.7-7.1,3.4-1.6v-.8l-1.1-1.4,2.9-5.4h1.9l1.5-1.2-.3-5.2,3.1-4.5,1.8-.6-.5-3.1"/>
      <path class="cls-1" d="M494.4,395.8l.7-39-4.1-24.4"/>
      <path class="cls-1" d="M569.1,363l1.6-.7.9-2.2,1.2.5.7-1-.8-.7.3-1.5-1.1-.9.6-1v-1.5l-1.2-.1.8-.8,1.3.8.3-1.4-.4-1.1v-.7l2.1.6-.4-1.5,1.6-1.3-.5-.9h-1.1c0,.1-.6-.8-.6-.8l.9-.9,1.6-.2.5-.8,1.4-.2v-.8l-1-.9v-.5h1.5l.4-.7-1.4-1v-.6"/>
      <path class="cls-1" d="M494.4,395.8l2.6,2.3,2.8-1.3,3.2.8.2,11.9"/>
      <path class="cls-1" d="M135.5,333.4l-.9,2.1,1.3,3.4,1.4,1.8,1.2,5.8,2.3,2.5.4,1.9-1.3,1.3-4.8,1.7-2.4,3.6-1.6,7-2.4,3.2-1.6.3-1.1,6.9,1.1,1.6,1.8.2,1,1.6-.8,2.4-3,2.2h-2.2"/>
      <path class="cls-1" d="M240.3,306.3l-17.4,124.1"/>
      <path class="cls-1" d="M154.1,292.1l-3.4,17.5-2.4,2.9h-2l-1.2-2.7-3.7-1.4-3.5.6-1,13.6.5,4.9-.5,2.9-1.4,3"/>
      <path class="cls-1" d="M154.1,292.1l46.2,8.2,40,6"/>
      <path class="cls-1" d="M80.4,161.8l-16.4,63.1,1.1,3.5,70.4,105"/>
      <path class="cls-1" d="M14.3,143.2l66.1,18.6"/>
      <path class="cls-1" d="M365.9,251.6l-4.8,67"/>
      <path class="cls-1" d="M334.2,227.1l33.1,2.4-1.4,22.1"/>
      <path class="cls-1" d="M240.3,306.3l52.6,6.5,51.7,4.8"/>
      <path class="cls-1" d="M344.6,317.6l16.5,1"/>
      <path class="cls-1" d="M251.8,218l-11.5,88.3"/>
      <path class="cls-1" d="M251.8,218l44.9,5.7,37.5,3.4"/>
      <path class="cls-1" d="M830.3,166.6l10.5-2.4.5.7.9-.3v-.7l14.9-3.4v.3"/>
      <path class="cls-1" d="M833.1,190l-1.7-2.2,3.5-3.4-1.8-1.5-2.8-16.3"/>
      <path class="cls-1" d="M857.2,160.8l3.2,12.3-.4,1.1.4,1.8"/>
      <path class="cls-1" d="M788.3,249.9l1.7-2.6-2.6-1.8-1,1.7"/>
      <path class="cls-1" d="M786.4,247.2l.5.4h.4c0,.1.6.6.6.6l.3.7v.5l.1.5"/>
      <path class="cls-1" d="M804.4,225.4l7.6,27.1,10.9-2.3"/>
      <path class="cls-1" d="M810.3,222.5l-1,2.2-.3,2.1"/>
      <path class="cls-1" d="M804.4,225.4l1.2-2.1,1.5-1.1,1.6-.3,1.6.6"/>
      <path class="cls-1" d="M674.1,442.7l3.3,6,50.1-3.3.6,3.2,1,1.1,2.1-.6.5-4.3-1.4-2.1v-2.5l2.2-1.4,1.7.9,4,.7,3.6-.3"/>
      <path class="cls-1" d="M676,353.5l21.4-3"/>
      <path class="cls-1" d="M697.4,350.5v1.9l-2,1-1.4,3.2.2,1.3,6.1,3.8,2.6-.3,3.1,4,.4,1.7,4.2,5.1,2.6,1.7,1.4.2,2.2,1.6,1.1,2.2,2,1.6,1.8.5,2.7,2.7v1.4l2.7,2.8,5,2.3,3.6,6.7.3,2.7,3.9,2.1,2.5,4.8.8,3.1,4.2.4"/>
      <path class="cls-1" d="M653.1,356.4l22.9-2.9"/>
      <path class="cls-1" d="M543.3,245l.7-.7v-2.3l-.6-.9,1-1.5,1.8-.6.9-.3,1-1.2v-2.4l1.7-2.4.5-.5v-3.5l-.8-1.4-1-.3-1.1-1.6,1-4,3-.8h2.4l4.2-1.8,1.7-2.2v-2.4l1.2-1.3,1.3-3.2v-2.6l-2.9-3.5h-1.2l-.9-1.1.2-1.6-1.7-1.7-2.5-1.3.5-.6"/>
      <path class="cls-1" d="M460.1,177.3h28.2l36.3-.9,18.6-.7"/>
      <path class="cls-1" d="M471,242.1h25.9c0,.1,27.2-1.1,27.2-1.1l14.3-.8,1.7,1.3.6,1.6,1.1,1.1,1.5.8"/>
      <path class="cls-1" d="M471,242.1l-1.8-4.4.7-2.2-.8-3.3.2-2.9-1.3-.7-.4-6.1-2.8-5-.2-3.7-2.2-4.3-1.3-3.7v-1.4l-.6-1.7v-2.3l-.5-.9"/>
      <path class="cls-1" d="M460,199.5l-.7-1.7-.3-1.3-1.3-1.2,1-4.3,1.7-5.1-.7-2-1.3-.4-.4-1.6,1-.5v-1.1c.1,0-1.2-1.5-1.2-1.5v-1.6c.1,0,2.3.1,2.3.1"/>
      <path class="cls-1" d="M553.7,197.3l-1.3-2.8-3.3-.7-2.7-1.5-2-5.5v-2.5l1.7-3.3-.6-1.1-2.1-1.6-.2-2.6"/>
      <path class="cls-1" d="M175.3,25.8l-4.8,22,3.7,7.4-1.6,4.8,3.6,4.8,1.9.7,3.9,8.3v2.1l2.3,3h.9l1.4,2.1h3.2v1.6l-7.1,17-.5,4.1,1.4.5,1.6,2.6,2.8-1.4,3.6-2.4,1.9,1.9.5,2.5-.5,3.2,2.5,9.7,2.6,3.5,2.3,1.4.4,3v4.1l2.3,2.3,1.6-2.3,6.9,1.6,2.1-1.2,9,1.7,2.8-3.3,1.8-.6,1.2,1.8,1.6,4.1h.9"/>
      <path class="cls-1" d="M127.4,173l24.4,5.4,23.3,4.7"/>
      <path class="cls-1" d="M127.4,173l8.5-37.3,2.9-5.8.4-2.1.8-.9-.9-2-2.9-1.2.2-4.2,4-5.8,2.5-.8,1.6-2.3v-1.6c-.1,0,1.7-1.6,1.7-1.6l3.2-5.5,4.2-4.8-.5-3.2-3.5-3.1-1.6-3.6"/>
      <path class="cls-1" d="M223,191.3l-47.9-8.2"/>
      <path class="cls-1" d="M161.1,22.8l-12.7,56.1.7,4-1.1,4.3"/>
      <path class="cls-1" d="M231.5,136.5l-8.5,54.8"/>
      <path class="cls-1" d="M605.9,211l4.1,50.2-1,5.2v2l2.4,3.5v.7l-.3.9.9,1.9-.3,2.4-1.6,1.8-1.3,4.2-3.8,5.3v7h-1.1l.9,1.9"/>
      <path class="cls-1" d="M586.4,317.8l-.3-1.8,4-3.7,6.9,3,1.5-.3.4-2.4-1.7-1.8.4-3.3,1-.5,1.2.6.6-1.2,3.7-.6v-.9l-1.4-2.2v-1.1l2.1-2.7v-.9"/>
      <path class="cls-1" d="M586.4,317.8h-2.8l-1.4-1.5-1.8-3.8v-1.9l.8-.6v-1.3l-1.6-1.9-.9-2.5-2.7-4.1-4.8-1.3-7.4-7.1-.4-2.4,2.8-7.6-.4-1.9,1.2-1.1v-1.3l-2.8-1.5-3-.7-3.4,1.2-1.3-2.3.6-1.9-.7-2.4-8.6-8.4-2.2-1.5-2.5-5.9-1.2-5.4,1.4-3.7"/>
      <path class="cls-1" d="M553.7,197.3l45.9-2.8"/>
      <path class="cls-1" d="M604.8,298l1.1.8.6-1-.7-1.7,4.6-.5.2,1.2,1.1.2.4-.9-.6-1.3.3-.8,1.3.8,1.7-.4,1.7.6,3.4,2.1,1.8-2.8,3.5-2.2,3,3.3,1.6-2.1.3-2.7,3.8-2.3.2,1.3,1.9,1.2,3-.2,1.2-.7v-3.4l2.6-3.7,4.6-4.4v-1.7l1.1-3.8,2.2,1,6.7-4.5-.4-1.7-1.5-2.1,1-1.9"/>
      <path class="cls-1" d="M617.4,208.5l32.4-3.4v1.4"/>
      <path class="cls-1" d="M656.5,263.7l-6.6-57.2"/>
      <path class="cls-1" d="M490.8,321.6l-.5-48.1-3.2-.7-2.6-4.7-2.5-2.5.5-2.3,2.7-2.6v-1.2c.1,0-1.4-2.1-1.4-2.1l-.9,1-2-.6-2.9-3"/>
      <path class="cls-1" d="M365.9,251.6l36,2,43.7,1.2h32.4"/>
      <path class="cls-1" d="M361.1,318.6l67.7,2.9h62"/>
      <path class="cls-1" d="M583.2,328.8l1-2.7,1.4.9.7-.4,1.2-4.1-1-1,1-2,.2-.9-1.3-.8M580.6,329.1l-.7-.7.2-1h1.1l.7.7-.3,1"/>
      <path class="cls-1" d="M656.5,263.7l1.3.5h2.2c0,.1,1.9-.7,1.9-.7l2.9,1.2,2.2,3.4v1l4.1.7,2.3-.2,1.9,2.1,2.2.2v-1l1.9-.8,3,.8,1.2.8,1.3-.7h.9l.6-1.7,3.4-1.8.5.8.8,2.9,3.5,1.4,1.2,2.1"/>
      <path class="cls-1" d="M583.2,328.8l23.3-1.5.6-.9-1.2-3.2h3.7l.7.6,22.6-2,2.6-.8,17.4-1,5.2-.8,20.5-1.4,5.6-1.4M580.6,329.1h1"/>
      <path class="cls-1" d="M684.2,316.4l6.9-4.2,1-.4.5-1.9,1.8-.5,1.4-1.4v-1.7l2.2-1.3.4-2.2,3-3,2.9-1,4.9-6.6"/>
      <path class="cls-1" d="M695.8,274.7v1.1l.5,1-.6,3.6,1.9,1.6.8,1.1,1,.6v.9l4.3,5.6h1.4l1.5,1.8,1.2.3h1.4"/>
      <path class="cls-1" d="M555.5,408.2l-.6,1.4,1.6,7.1,1.2,1-.5,1.7,2.4,2.5v3.3h-2l1.8,2.5-6,8.4-2.4,4.8-1.7,11.9,36-2v1.4l-1.1,1.4-.9,4.6,4.8,6.8-.3,1.3,1.2,1.8.6.7"/>
      <path class="cls-1" d="M503.2,409.5l.5,19.9.7,3.4,2.6,2.8.7,5.4,3.8,4.6.8,4.3h1v7.3l-3.4,6.4,1.3,2.3-1.3,1.5.7,3v4.3l-2.3,3.5v.8l-1.8,1.2,1,1.8,1.2,1.1"/>
      <path class="cls-1" d="M842.5,147.9l18.4-3.8,1-1.5.3-1.7,1.9-.6.5-1.1,1.7-1.1,1.3.3"/>
      <path class="cls-1" d="M830.3,166.6l-.7-1,.5-15"/>
      <path class="cls-1" d="M857.2,160.8l6.5-2,.7,2.6h.8l.6,2.2,2.6,1.3,1.3,1.1,1.4,3"/>
      <path class="cls-1" d="M830.1,150.6l12.4-2.7"/>
      <path class="cls-1" d="M743.9,237.2l60.5-11.8"/>
      <path class="cls-1" d="M809.4,264.6h-.8M821.8,260.4l-.6.3M819.9,260.9l-4.6,1.6-.7.8M786.4,247.2l-.6-.6h-1.6c0-.1-.4-.5-.4-.5v-.5l-1.6-.6-.8.3h-1.2c0-.1-.7-.8-.7-.8l-.5-.2-.2-.7.6-.8v-.9l-1.2-.2-1-.9h-.9c0,.1-1.6-.2-1.6-.2M786.3,254.1l.3-.4-.7-1h1c0-.1,1-1,1-1l.4-1.8"/>
      <path class="cls-1" d="M743.9,237.2l1.7,11.4,1.8-1.6.9-1.6,3.1-3.9,2.2.3,2.6-3.8,1.9,1,3.3-.4,1.7-2.9h1.3l.9-1.4,1.4-.3,2.2,1.6,2.6-.4-.2,1,.8,1.2h.7l.2.7,1,.5-.2,1.6.9.4"/>
      <path class="cls-1" d="M868.4,133.6l-2.3-1.4-.8-2.2-3.2-2-.6-4-11.9-36.8"/>
      <path class="cls-1" d="M649.9,206.5l21.4-3.5"/>
      <path class="cls-1" d="M552.1,107.6l1.9.7,3,3.8,17,3.8,1.4,1,4,.8.7.5,2.8-.2,4.9.8,1.4,1.5-1,1,.8.8,3.8.7,1.2,1.2v4.4l-1.2,2.8h2c0,.1,1-.7,1-.7l.9.8-1.1,3.1,1,1.6,1.2.3"/>
      <path class="cls-1" d="M448.8,56.6l2.4,7.3-1.1,2.8.8,1.4-.3,5.1-.5,1.1,2.7,9.1,1.3,2.5.7,14,1,2.7-.4,5.8,2.9,7.4.3,5.8v2.1"/>
      <path class="cls-1" d="M460.1,177.3l.2-39.5-1.5-1.9-2.6-.6-.4-1.8-1.7-2.5.3-1.2,3.1-1.9.9-2v-2.2"/>
      <path class="cls-1" d="M543.2,175.7l-1.1-4.5-.2-3-2.2-3-2.8-.7-5.2-3.6-.6-3.3-6.3-3.1-.2-1.3h-3.3l-2.2-2.6-2-1.3.7-5.1-.9-1.6.5-5.4,1-1.8-.3-2.7-1.2-1.3-1.8-.3v-1.7l2.8-5.8,5.9-3.9-.4-13,.9.4.6-.5v-1.1l1-.6,1.4,1.2h.7"/>
      <path class="cls-1" d="M478,254.8l-3.9-6.3-2.1-3.7.3-1.4-1.3-1.3"/>
      <path class="cls-1" d="M490.8,321.6l.2,10.8"/>
      <path class="cls-1" d="M578.2,340.2l1-2,1.2-.5v-.7l-1.2-1.1-.6-1,1.7.2.8-.7-1.4-1.5,1.4-.5v-1l-.5-1v-1.3M581.6,329.1l.8.7.8-1"/>
      <path class="cls-1" d="M569.1,363l38.3-2.6"/>
      <path class="cls-1" d="M349,51.6l-5.2,66.7"/>
      <path class="cls-1" d="M343.8,118.3l-2,20.7"/>
      <path class="cls-1" d="M341.8,139l-51-5.3-57.3-7.9-2,10.7"/>
      <path class="cls-1" d="M697.4,350.5l4.4-1.9h1.3c0-.1,7.3-4.4,7.3-4.4l23.2-2.2.4.5-.2,1.4.7.3,1.2-1.5,3.3,3v2.6l19.8-2.8,24.5,17.1"/>
      <path class="cls-1" d="M717.6,312.3v5.2h-1.5c0-.1-1.4,1.1-1.4,1.1l-2.4,5.2-2.6-1.1-3.5,2.5-.7,2.1-1.5,1.2-.8-.8v-1.5l-.9-.2-4,3.3-.6,3.4-4.7,2.4-.5,1.2-3.2,2.6-3.6.5-4.6,3-.8,4.1-1.3.9h-1.5c0-.1-1.4,1.2-1.4,1.2v4.9"/>
      <path class="cls-1" d="M717.6,312.3l29.4-3.5,39.4-7.3,29.1-6.1"/>
      <path class="cls-1" d="M343.8,118.3l39.2,2.9,46,2.1,29.5.4"/>
      <path class="cls-1" d="M337.9,182.9l51.1,3.5,38,1.6,3.4,3.2,1.7.2,2.1,2h1.8c0-.1,1.8-2.1,1.8-2.1l1.5.6,1-.7.7.5.9-.4.7.4.9-.4,1,.5,1.4-.6,2,.6.6,1.1,6.1,2.2,1.2,1.3.9,2.6,1.8.7,1.5-.2"/>
      <path class="cls-1" d="M334.2,227.1l3.7-44.2"/>
      <path class="cls-1" d="M844.4,95.4l1.2,2.3-1.1,3.5,2.1,2.8-.4,1.7v1.3l-1,2.1-1.4.4-.6,1.3-2.1,1-.7,1.5,1.4,3.4-.5,2.5.5,1.5-1,1.9.4,1.9-1.3,1.9.2,2.2-.7,1.1.7,4.5.7,1.5-.5,2.6.9,1.8-.2,2.5-.5,1.3v1.4l2,2.6"/>
      <path class="cls-1" d="M814.4,185.8l14.6,4.9-.4,5.9"/>
      <path class="cls-1" d="M810.3,222.5l1.4-1.7,1.6-.6,1.8-3,1.6-2.3,3.3-2.6-4.2-3.2-2.1-1.1-1-2.8-2.7-.9-.5-3.6,1-1,.7-2-1.5-1.8,3-5.4v-2.2l1.7-2.5"/>
      <path class="cls-1" d="M344.6,317.6l-.6,10.6"/>
      <path class="cls-1" d="M270.8,426.5l-2-2.2.3-3,34.4,3.6,31.8,2.6,7.9-99.3h.8"/>
      <path class="cls-1" d="M80.4,161.8l47,11.2"/>
      <path class="cls-1" d="M175.1,183.1l-21,109"/>
      <path class="cls-1" d="M814.4,185.8l-1.6-1.1-1.9.3-3-2.2-3-5.8h-2l-.4-1.5-1.7-1.1-70.5,13.9-.8-6"/>
      <path class="cls-1" d="M830.1,150.6l-1.1-1,.5-2-3-14.2-1.9-1.5-.9,1.6-.9-2.2.8-1.8-3.1-6.7.3-3.8.4-1-.6-2,.4-2.2-2.2-2.3-.5-3.2.4-1.5-1.4-.9.6-1.9-.8-1.7"/>
      <path class="cls-1" d="M723.3,220.4l-4.9-29.9"/>
      <path class="cls-1" d="M695.8,274.7l3.2-1.4h1.5l.4-3.5,1.5-.8-1.3-3.6,1.1-1.3.3-2.2,1-2.3,1.6.5.6,2.1,1-.5.7-.8,1-.2v-1.9l-1.4-1.1,1-.5v-2.1l1.2-2.2h1.3l.3-1.2,1.5-1.8,1.3,1.2,1.8-1.7h.6l1.8-2,2-3.3,1.1-.5.4-2.2-.5-1.1,1-3.6v-5.4l1.2-3.4-.6-2v-2.2l-1.3-2.1,2.2-1.2"/>
      <path class="cls-1" d="M344,328.2l52.6,3.2-1.4,42.7,2.7,1.3,2.5,3,1.5.3,1.1-1,1.2.4,1.4,1,1.1-1.5,2.3,1.7.5,2.9,1.2.7h2.3c0-.1,3.5,1.8,3.5,1.8h2c0-.1,1.4-.5,1.4-.5l2.3,2.2,2-2.3,3.5,1.1,1.9,3h2.3c0-.1-.7,2-.7,2l2.3,1.1,3-2.6,2.6,1.7,1.3-.5v1.5c.1,0,1.8,1.2,1.8,1.2l2.3-2.5,1.2.7-.3,2,1,1.8,1.2-.8,2.5-4.2,1.8,2,2,.5,2.1-.7,2,1.8h1.2c0-.1,1.3,1.1,1.3,1.1l3.6-.9.6-1.7,3.7-.3,1.6.7,5-2.5.6,1.5,5.1-.3.5-1.6,2.2.9,4.6,3.8,6.4,1.9"/>
      <path class="cls-1" d="M148,87.2l-30.3-7.3-2.8,1-5.4-.9-1.8-.9-1.5,1.2-3.3-.4-4.5.5-.9.7-4.2-.4-.8-1.6-1.2-.2-4.4,1.3-1.6-1.1-2.2.8-.2-1.8-2.3-1.2-1.5-.2-1-1.1-3,.3-1.2-.8h-1.2l-1.2.9-5.5.7-6.6-4.2,1.1-5.6-.4-4.1-3.2-3.7h-3.7l-.4-1,.4-1.2-.7-.8h-1"/>
      <path class="cls-1" d="M723.3,220.4l3.2,19.7,17.4-2.9"/>
      <path class="cls-1" d="M337.9,182.9l3.9-43.9"/>
      <path class="cls-1" d="M684.2,316.4l28.9-3.3.2-1,4.6-.5-.3.7"/>
      <path class="cls-1" d="M223,191.3l-3.3,21.9,32.1,4.8"/>
      <path class="cls-1" d="M709.2,292.2l.7.6-.8,1.2,1.5.7v1.5l4.5,2.3h2.3c0-.1,1.9-1.9,1.9-1.9l.8-1.7,3,1.8,5.5-2.4.5-.9-.8-.5.6-1.4,1.5,1,4.3-3.1.7,1.1,2.3-2v-1.4l1.4-1.9-1.5-1.2,1-3.3,3.7-6.3-.4-1.9,2.1-2.2-.4-1.5,1.4-1.7v-4.7l2.4.7,1.3,1.9,2.8.5,1.3-1.6,2.3-8.5,2.4,1.1,1-2.5.9-.8,1.4-1.8.9-.8.5-2.1,1.2-.8v-2.9l.7-2.3-.9-1.6.2-.9,10,5.2.5-2.3.4-1.6.4-.7"/>
    </g>
    <g id="markers">
      <g class="marker">
        <path class="cls-22" d="M60.6,38.8l4.3-.7,3,3.5,1,4.7,5.4,4.7h3.4l7,2-2.7,7.7-28.2-7.7,1.2-5,1.6-3.5,1.9,1,1.3-2.3s.8-2.2.6-2.6.1-1.7.1-1.7l.1-.1Z"/>
        <circle class="cls-2" cx="68" cy="50.5" r="5"/>
        <g class="cls-11">
          <g class="cls-11">
            <text class="cls-18" transform="translate(78 53.5)"><tspan x="0" y="0">Scatter Creek-</tspan></text>
          </g>
          <g class="cls-11">
            <text class="cls-18" transform="translate(78 64.5)"><tspan x="0" y="0">Capital Forest</tspan></text>
          </g>
        </g>
      </g>
      <g class="marker">
        <path class="cls-5" d="M36.4,78.3l3.3,1.8-1.6,5.8,1.6,1.9s-1.1,5-1.6,5-4,1.4-4,1.4l7.6,4,3.1,3,3.5-1.6,2.3,2.1,3.4,1.8h4.5l4,1.9h2.1l-1.5,4.1-1.9,1.3-2.8,2.8-3.5,2.4s-1.1,2.1-.9,2.7.6,2.5.8,2.9.7,1.2.6,1.7-1.4,3.1-1.4,3.1c0,0-2.9,1.9-3.7,2.1s-4.2-.6-5.6,0-4.6,3.4-4.6,3.4l-3.1-1s-3.7-1.4-4.7-1.2-3.3.5-4.2.1-2.5-1.6-2.5-1.6c0,0-.6-1.7-.7-2.3s.6-2.9,1.1-3.3,3.6-2.4,3.6-2.4v-2.2c0-.8-.2-3.8-.6-4.4s-.1-1.6-.1-2.2-1-2.2-1-2.2l-4.8-2,13.4-29.1-.1.2Z"/>
        <circle class="cls-2" cx="43.2" cy="113.9" r="5"/>
        <g class="cls-11">
          <text class="cls-18" transform="translate(53.2 116.9)"><tspan x="0" y="0">Devils Staircase</tspan></text>
        </g>
      </g>
      <g class="marker">
        <path class="cls-20" d="M191.5,101.7l3.4-2.9h2.3l2.9-2.3h2.9v-3.4l10.6.5,1.4,3.8-.7,6.7,3.6,2.1,2.9-1.4,3.6,1.4,2.9,2.7,2.5,3.3s-.8,1.9-1.1,3.4-1.8,13.8-1.8,13.8l-4.3,3.4-9-.8-3-1.3v1.6l-4.5-.8-3.3,1.4-1-7-4.3-3.2-1.6-5.7s-1.7-6.3-1.7-6.5.6-4.4.6-4.7-3.5-4-3.5-4l.2-.1Z"/>
        <circle class="cls-2" cx="212" cy="113.9" r="5"/>
        <g class="cls-11">
          <text class="cls-18" transform="translate(222 116.9)"><tspan x="0" y="0">High Divide</tspan></text>
        </g>
      </g>
      <g class="marker">
        <path class="cls-10" d="M57.9,320.7l-7.1-1.9-2.1-8.6-3.4-4.1-4.6-11.8,13.2,2.2-.3-6.4,2.7-4.3.2-3.9-8,.2-2.1,4.1-6.6,1.7-6.5-4.2,2.6-5.2s2.2-3.9,2.1-4.3-3.6-4.5-3.6-4.5l6.6-1.6,1.4-2.8,4.5-1.1h4.3l-2.6-2.4.3-5.6-.6-3.9-3.7-3.2-1.7-4-2.6-5.3s.3-8.1.3-8.5.1-4.2.8-4.7,2.4-3.2,2.4-3.2l4.5-.8h2.7l.3,1.9,1.9-.3,1.3-1.6,3,.8,2.5-.2s-.6,2.4,0,3.2,1.2,2.3,0,3.7-1,3.5-1,3.5c0,0-1.9,1.6-1.5,3.1s2.5,3.1,2.5,3.1h2.5l1.1,2.7s-1.1,2.1,0,2.7,3.9,1.8,3.9,1.8c0,0,.6,1.1.8,2.1s-.3,1.9-.8,3.4c-.5,1.5-1.1,3.1-1,3.5s.7,1.1,1.8,1.6,2.1,1.9,2.1,1.9c0,0,.7.2,1.5,1.6s1.8,1.6,1.8,2.9-.5,4.2,0,5,0,1.6,0,1.6c0,0-.2,1.8.2,1.8s1.7.5,2.2.6,1.6,0,1.6,1.3.8.8,0,3.1-1.3,3.2-1.3,5.2.5,4,.5,4c0,0,1.9,1.1,1.9,2.4s1.3,1.4,0,3.7-1.4,2.7-1.9,4.3-1.4,3.7-1.1,4.3.8,1.1,2.3,1.9,1.9.5,3.4,1.1,2.4,0,2.7,1.1,1.6-.7,0,3.3-3.5,4.4-3.2,6.1-2.2,5.1-1.9,7.2.6,3.1.6,3.1l-22.2-4.5.4.1Z"/>
        <circle class="cls-2" cx="62.9" cy="263.1" r="5"/>
        <g class="cls-11">
          <text class="cls-18" transform="translate(72.9 266.1)"><tspan class="cls-23" x="0" y="0">W</tspan><tspan x="8.34" y="0">estern Sierra</tspan></text>
        </g>
      </g>
      <g class="marker">
        <path class="cls-16" d="M16.4,268.3l3.4-8h-2.5l-2.5-3.3-1.5-3.5v-7.5l1.2-4.2.2-2.1,1.7,1.2,1.7,3.8,2,4.3,2.7,1.6,5.6,1v3.1l1.3,3.6v2.7l1.1,5.3,3.5,3.6s3.4,4,3.6,4.5-2.1,4.3-2.1,4.3l-2.6,5.2,6.5,4.2.9,6.4,4.6,11.8,3.4,4.1,2.1,8.6,7.1,1.9,1.4,13.2-5.8,1-1.1-.7h0l-4.5-6.6-2.7-2.2-3.7-.5-3.1-2.3-4.7-1.5-2.8-.3-2.5-2.5.2-2.8.8-4.8,1.8-5.1-1.4-1.6-4-9.4-2.7-3.7-.4-3-1.6-2.3.2-2.5-2-5-2.9-2.7.6-7.1"/>
        <polygon class="cls-2" points="39.7,308.8 41.1,311.4 44.5,312 42.1,314.3 42.7,317.7 39.7,316.1 36.7,317.7 37.3,314.3 34.9,312 38.3,311.4"/>
        <g class="cls-11">
          <g class="cls-11">
            <text class="cls-18" transform="translate(49.7 316.8)"><tspan x="0" y="0">C</tspan><tspan class="cls-24" x="6.5" y="0">A</tspan><tspan x="12.01" y="0" xml:space="preserve"> Central</tspan></text>
          </g>
          <g class="cls-11">
            <text class="cls-18" transform="translate(49.7 327.8)"><tspan x="0" y="0">Coast Range</tspan></text>
          </g>
        </g>
      </g>
      <g class="marker">
        <polygon class="cls-8" points="313.4 223.8 316.7 193.2 314.2 196.5 311.7 196.2 311.7 193.2 281.4 189.1 279.8 202.3 278.9 206.4 271.9 205.2 270.2 220.3 313.4 223.8"/>
        <circle class="cls-2" cx="296.5" cy="207.3" r="5"/>
        <g class="cls-11">
          <text class="cls-18" transform="translate(306.5 210.3)"><tspan x="0" y="0">Medicine Bow</tspan></text>
        </g>
      </g>
      <g class="marker">
        <path class="cls-17" d="M238,431.5l-52-7.4-7.6-4.3h5.3l-.3-3.5,13.5,1.3,3.1-16.5-5.5-1.2-26.3-4.7,2.7-16.6,1.8,1.9,9.3,1.1.3-4.5,9.3,1,4.5,11.9,1.3-3.2,5.6-.8-.7-4.5,9-.6-.2-2.6h2.7l1.4,3.7,10-6,3.2.6-1.1,11.9,20.5,2.9,1.9,5.3.8,7.5-4.3,1.5s-4.8.9-5.3.7-3.1,25.1-3.1,25.1h.2Z"/>
        <circle class="cls-2" cx="220.4" cy="402.6" r="5"/>
        <g class="cls-11">
          <text class="cls-18" transform="translate(230.4 405.6)"><tspan x="0" y="0">Sky Islands</tspan></text>
        </g>
      </g>
      <g class="marker">
        <polygon class="cls-21" points="420.5 114.1 407.7 114.1 407.7 105.8 405.3 105.8 405.3 92.2 429.6 92.8 429.6 106.9 421.1 107.3 420.5 114.1"/>
        <circle class="cls-2" cx="417" cy="100.2" r="5"/>
        <g class="cls-11">
          <text class="cls-18" transform="translate(427 103.2)"><tspan x="0" y="0">Prairie Potholes</tspan></text>
        </g>
      </g>
      <g class="marker">
        <polygon class="cls-6" points="378.7 205.6 378.7 213.8 397.3 213.8 396.9 209.1 397.3 207.3 398.8 206.6 398.8 187.6 369.1 185.7 369.1 205.6 378.7 205.6"/>
        <circle class="cls-2" cx="388.5" cy="197.3" r="5"/>
        <g class="cls-11">
          <text class="cls-18" transform="translate(398.5 200.3)"><tspan x="0" y="0">Nebraska Sandhills</tspan></text>
        </g>
      </g>
      <g class="marker">
        <path class="cls-7" d="M342.7,316.3l-35.4-3.5,1.8-6.5h1.3l.8-1.7h3.4l2.4-1.3s1.9-2,2-2.3.8-3.1.8-3.1l3.3-.7,3.3,1.9,1-.2,1.1-4.2s-.1-2.6.2-3,3.4-1.2,3.4-1.2l2.9,2.2,1.4-1.9,2.1-3s4.5.4,4.5,1.4-2.2,3.1-2.2,3.1l-.7,1.7c-.2.6-.2,2.1-.4,2.7s-.8,3.6-.8,3.6v1.1l4.4.6-.7,14.2.1.1Z"/>
        <circle class="cls-2" cx="331.5" cy="303.3" r="5"/>
        <g class="cls-11">
          <text class="cls-18" transform="translate(341.5 306.3)"><tspan x="0" y="0">Purgatoire Canyon</tspan></text>
        </g>
      </g>
      <g class="marker">
        <path class="cls-13" d="M391,482.6h18.5l1.7,3,1.9-3s2.3-2.4,8.6-.6l1.8,3,7.5-6.4,11.8-11.7-10.6-1.3-1.7-3-2.2-2.7,4.1-3.4-1.6-3.3h-9.2l-2.9-4.1,4.7-3.6-1.8-6.9-5-.7-2.2,3-5.6,2.3v11.7c.1,0-6.9-.6-6.9-.6l-.6,5.4-12.1-.6.7,9.1,6.3.6v3.7c.1,0-5.3.2-5.3.2v9.8l.1.1Z"/>
        <circle class="cls-2" cx="416.7" cy="462.6" r="5"/>
        <g class="cls-11">
          <text class="cls-18" transform="translate(426.7 465.6)"><tspan x="0" y="0">Edwards Plateau</tspan></text>
        </g>
      </g>
      <g class="marker">
        <polygon class="cls-15" points="430 561.2 429.8 554.5 426.5 553 428.4 549.9 428.5 538.4 426.5 533.8 427.5 528.3 431.3 530 440.8 530.5 440.5 533.3 439.5 535 438.1 536 435.2 536.4 437 537 438.9 536.4 438.5 539.6 437.4 539.5 437.6 540.7 437.9 542.1 436.6 543 436.6 546.1 438.2 547.5 438.8 550.6 438.4 552.8 437.4 553.2 437.8 554.7 438.9 555.1 439.7 556.8 439.7 559.4 440.8 561.5 443 564.1 442.9 564.8 440.7 564.6 439.1 566 439.3 567.4 438.4 567.1 437 566.9 433.6 563.2 431.3 562.6 430 561.2"/>
        <circle class="cls-3" cx="434" cy="545" r="5"/>
        <g class="cls-11">
          <text class="cls-18" transform="translate(444 548)"><tspan x="0" y="0">Laguna Madre</tspan></text>
        </g>
      </g>
      <g class="marker">
        <path class="cls-19" d="M657.7,457.9l2.4-3v-5h-4l-.6-5.6-2.9-1.2-1.6-8.9-8.1-.6-.4,12.1-9.3,1.3c-2.4,6,3.5,11.1,3.5,11.1l-2.2,2.8,7-1.4,9.2-.5,8.1,1.9-1-3h-.1Z"/>
        <polyline class="cls-19" points="577.1 465.3 578.7 465.4 580.6 466.4 581.4 467.5 583.9 467.6 585.4 468.4 585.6 469.8 589 468.1 587.3 465.3 582.8 457.7 584.7 451.6 574.4 451.7 576.8 457.8"/>
        <path class="cls-19" d="M589,466v-1.8l-1.7-2.9h2.7v-3l3.6-1.3v-5.3l3.4-1.4-.5-9.5,5.6-1,1.1,8.8,7.4-1,2.1-2.4,6.5-.8,3.7-3.5,3,2.6-.3,4.2-.9,3.1,2.5,2.8,1.7.7.9,1.2-.4,7.3-1.1.6-4.9,1.6-3.5.4,3.3-2.2v-.9l-3.4-6.4-1.4-.5-1.1,1.1v2.3l-2,3.8h-.8c0,.1-.6-.3-.6-.3h-1.3c0-.1-.9.4-.9.4l-1.5,1.3h-5c0,.1-2.4-1.4-2.4-1.4l-7.9,2.5-.9-.7-.5.2v1.6l-.7.1-2.6,2.7-1.3-2.9.1-.1Z"/>
        <polygon class="cls-19" points="669.7 466.6 671.9 468.6 671.8 471.3 674.2 471.3 676.1 470.3 678.6 470.4 680.6 469.6 683.5 467.6 686.6 464.7 687.7 464.3 688.3 464.8 689.7 464.8 690.2 464 689.7 462.8 689.1 462.2 689.3 461.4 691.3 460.3 694.6 459.4 694.2 452.9 695.6 449.9 694.3 447.2 678.7 448.2 677.4 452 676.3 459.3 669.7 459.9 669.7 466.6"/>
        <circle class="cls-2" cx="626.5" cy="455.3" r="5"/>
        <g class="cls-11">
          <text class="cls-18" transform="translate(557 458.3)"><tspan x="0" y="0">Emerald Coast</tspan></text>
        </g>
      </g>
      <g class="marker">
        <path class="cls-9" d="M693.3,356.4l-3.3-2v4.2l.8,2.5v1.9l-2.6-.4-2.8,1.6-2.7-.4-1.7-.8v-2.4s-1.9-1.7-2.1-2-.9-1.6-.9-1.6l-6.2-.5-.2-1.5-1.7-2.4-.4-2,1-1.4,1.9-2.2s1.5,1.2,1.9.4,1.1-3.2,1.1-3.2l-1.6-1.4s-1.8-1.7-1.9-2.1-.4-1.4-.4-1.4l4.8-.5h1.9l.5-1.2-1.4-3.8,2.8-.6,1.6-1.4h3.6l4.1-.9.8-1.6h2.6l-.3-4.1s1-2.2,1.1-2.6,1.8-1.7,2.5-2.1,3.5-1.5,5-2.1,2.8-.9,3.2-1.1,1-.5,1.5-.5,5.5.8,5.5.8l1.3-2,1.6,2.7,3.9-1.5,1.3-3.2s2.2-1.3,2.5-1.4,3.7,1,3.7,1l.8,1.4,3.8-.3s3.5-.2,4,.2,1.3,2.3,1.3,2.3l-.7,2.4-1.3,2.2s-1.5.1-2.5,0-1.9,0-2.7.3-1.5,2.7-1.5,3.1,0,1,.2,1.3,1.1,1.9.9,2.3-.6-.1-.9,1-1,3.2-1,3.2l-1.1.7s-.9.6-1.7.5-2.3-.5-2.3-.5h-1.4s-2.4,2.1-2.8,1.9-1.8,1-1.8,1c0,0-1.1,1.4-1.5,1.5s-.6-.2-.8.7.1,1.6.1,2.2.3.6-.3,1.3-2.6,2.5-2.6,2.5c0,0-1-.6-1.6,0s-3.5,1.4-4.2,1.8-1.6.9-2.2,1.3-.9,1.2-2.1,2.4-3,2.7-3.3,3,.2,1.7-1,2.4-1.5,1.5-1.5,1.5l-.6-.4Z"/>
        <circle class="cls-2" cx="695.8" cy="336.5" r="5"/>
        <g class="cls-11">
          <g class="cls-11">
            <text class="cls-18" transform="translate(646.8 339.5)"><tspan x="0" y="0">Southern</tspan></text>
          </g>
          <g class="cls-11">
            <text class="cls-18" transform="translate(641.8 350.5)"><tspan x="0" y="0">Blue Ridge</tspan></text>
          </g>
        </g>
      </g>
      <g class="marker">
        <path class="cls-14" d="M747.4,409l-3.8-.4-3.7-7.9-3-3,.7-4.3,6-6.3,6-1.8,5.6,4.8,4-1.2-1.3-5.5-5-1.4,3.4-6.6,2.9-1.9,3.7,3.1,1.3,2.4,1.4-1.4v-4.1l3.6-4.3-1.9-1.7,3.9-2.1-5.4-2.4-.9-4.9v-3.3h5l13.4,7.7s-9,5.3-8.8,14.9l-4.2,6-2.1,2.4-4,6.2-1.9.9-4.8,2.1-2.1,2.8-1.3,2.2-3,3.3-3.7,5.6v.1Z"/>
        <circle class="cls-2" cx="764.2" cy="387.1" r="5"/>
        <g class="cls-11">
          <text class="cls-18" transform="translate(688.7 390.1)"><tspan x="0" y="0">SC Low Country</tspan></text>
        </g>
      </g>
      <g class="marker">
        <path class="cls-12" d="M842.9,127.5h5.3l2.1-1.1,2.3-2.3,1.2-2.3-1.9-2.3,2-1.9v-1.9s-.8-1.4-.8-2.2.8-3.7.8-3.7l2-.6h3.5l2.2,8.5,2.9-1.5-.7-3s-1.2-1.1-1.2-1.4,1-2.6,1-2.6c0,0,2.1.3,2.2.8s.7,1.6.7,1.6c0,0,1,.5,1.2-.1s.8-2.8.8-2.8l1-3.6-1-3.7,3.3-2.6s2.1-2.2,1.9-2.7-.5-1.8-.5-1.8l3.5,1.3s3.1.4,3.4-.8-.6-2.2,0-2.5,1.1-4.9,1.1-4.9c0,0-1-.5-1.2-1.3s-.5-2.1-.2-2.4,3.3-1.3,3.3-1.3c0,0,1.2-.4,1.6-.8s1-2.2,1-3.1-.7-5-.7-5l-1.7-1-2.3-1.3,1-1.4v-2.8l-.5-2.7-1.2-5.9-.8-2.8-2.1-2.9.6-1.3c-.6-1-5.1,0-5.1,0,0,0-2.9,1.3-5.2,1.7s-5,1.1-5,1.1l-1.1.8-1.3,2.4s-.5,3.3-.7,3.9,0,2.4,0,2.4c0,0,.2,2.3,0,3.1s0,1.9,0,1.9c1.1,1.3,1.7,1.6,1.3,2.4s-1.2.5-1.3,1,.4-.4,0,.5,0,2.5,0,2.5l1.1,1.8s-1.6.4-2.3,1-2.1,1.2-2.1,1.2l-.5,1.7,2.2,1.3-.9,2.2s-1.3.2-1.5.4-1.5,1-1.9,1.5-.7,1-.9,1.3-2.3.6-2.3.6l-1.7,1.3-.6,6.3s0,3.4-.2,3.8-.2.5-.4,2,1,2.6,1,2.8,1.1,1.5,1.1,1.5c0,0-.2.6-1.7,1.9s-.4.9-1.5,1.3-.2.2-1.8,1.4-2.8.2-2.7,1.3-.3.6.6,2.9,1.4.3,1.1,3.2-.2,3-.7,4.9,0,5,0,5l-.1-.2Z"/>
        <circle class="cls-2" cx="864.4" cy="90.9" r="5"/>
        <g class="cls-11">
          <g class="cls-11">
            <text class="cls-18" transform="translate(800.4 93.9)"><tspan x="0" y="0">Mountains of</tspan></text>
          </g>
          <g class="cls-11">
            <text class="cls-18" transform="translate(816.4 104.9)"><tspan x="0" y="0">the Dawn</tspan></text>
          </g>
        </g>
      </g>
    </g>
  </g>
</svg>